<?xml version="1.0" standalone="no"?>
<!DOCTYPE svg PUBLIC "-//W3C//DTD SVG 20010904//EN"
 "http://www.w3.org/TR/2001/REC-SVG-20010904/DTD/svg10.dtd">
<svg version="1.0" xmlns="http://www.w3.org/2000/svg"
 width="720.000000pt" height="686.000000pt" viewBox="0 0 720.000000 686.000000"
 preserveAspectRatio="xMidYMid meet">
<metadata>
Created by potrace 1.16, written by Peter Selinger 2001-2019
</metadata>
<g transform="translate(0.000000,686.000000) scale(0.100000,-0.100000)"
fill="#000000" stroke="none">
<path d="M1005 5014 l-60 -13 70 4 c57 3 64 2 38 -6 -18 -5 -33 -11 -33 -12 0
-1 20 -2 44 -2 24 0 40 3 35 6 -6 3 4 6 21 6 33 0 40 -13 13 -21 -39 -12 -203
-17 -203 -7 0 6 -7 11 -16 11 -10 0 -14 -6 -10 -15 4 -12 -2 -15 -27 -14 -30
1 -31 1 -7 9 l25 8 -27 1 c-15 1 -34 -6 -42 -15 -9 -8 -16 -13 -16 -11 0 3
-23 -1 -52 -8 -28 -8 -55 -12 -60 -9 -4 3 -8 0 -8 -6 0 -9 -32 -9 -90 0 -3 0
2 5 10 11 12 9 12 10 1 7 -20 -6 -26 -28 -8 -28 9 0 23 -7 31 -16 9 -8 16 -11
16 -5 0 5 14 9 30 9 17 -1 30 -5 30 -10 0 -4 -4 -8 -10 -8 -5 0 -7 -6 -4 -14
3 -9 13 -12 22 -9 9 4 14 3 10 -2 -4 -4 -2 -15 5 -23 9 -13 9 -14 0 -8 -7 4
-13 3 -13 -3 0 -6 -7 -8 -15 -5 -14 6 -97 -33 -103 -49 -2 -4 -10 -14 -19 -22
-13 -13 -13 -15 1 -15 9 0 16 -4 16 -10 0 -5 -8 -7 -17 -3 -16 6 -16 4 1 -15
11 -12 14 -22 8 -22 -6 0 -12 5 -14 12 -7 19 -27 -1 -23 -22 3 -13 -2 -20 -12
-20 -13 0 -13 3 -3 15 10 12 10 15 -4 15 -9 0 -16 -7 -16 -15 0 -7 -6 -18 -13
-22 -8 -4 -16 -16 -20 -25 -4 -10 -13 -15 -25 -11 -19 5 -37 -20 -27 -37 3 -5
0 -12 -6 -16 -8 -5 -9 -3 -4 6 5 8 4 11 -3 7 -11 -8 -11 -25 1 -44 5 -7 3 -21
-3 -30 -11 -17 -11 -17 -6 0 8 27 0 20 -23 -19 -12 -19 -18 -40 -15 -46 4 -7
2 -8 -4 -4 -6 4 -18 -8 -28 -29 -9 -19 -20 -35 -25 -35 -5 0 -9 -7 -9 -15 0
-8 5 -15 11 -15 5 0 7 -4 4 -10 -3 -5 -11 -10 -16 -10 -6 0 -7 5 -4 10 3 6 1
10 -4 10 -6 0 -11 -14 -11 -31 0 -26 -3 -29 -14 -20 -11 9 -16 5 -26 -18 -6
-16 -9 -35 -4 -42 5 -8 3 -9 -6 -4 -10 6 -11 2 -6 -18 3 -14 2 -29 -4 -32 -5
-3 -10 -23 -10 -43 -1 -28 -3 -33 -10 -21 -5 9 -8 46 -7 81 2 36 0 74 -4 84
-4 10 -8 -30 -8 -91 -1 -60 -5 -116 -10 -123 -10 -17 -2 -64 10 -56 5 3 9 0 9
-5 0 -6 -4 -11 -10 -11 -13 0 -13 -37 0 -45 6 -3 15 4 20 17 8 18 10 12 6 -31
-3 -54 13 -108 29 -93 5 4 5 -1 2 -11 -8 -23 3 -73 12 -58 4 6 5 -16 3 -49 -3
-37 -1 -60 6 -60 6 0 8 10 4 22 -3 14 -2 19 6 14 7 -4 12 -13 12 -21 0 -8 7
-18 16 -23 17 -9 16 -43 -1 -43 -5 0 -13 10 -17 23 -5 15 -6 9 -4 -18 2 -22
16 -61 32 -85 15 -24 27 -46 27 -49 0 -10 22 -40 30 -40 4 0 5 5 2 10 -9 15
23 24 38 11 10 -7 17 -7 24 0 8 8 11 2 9 -20 -2 -26 1 -31 20 -31 13 0 25 -4
28 -9 3 -4 17 -6 31 -3 18 3 25 0 25 -11 0 -9 4 -19 10 -22 11 -7 2 23 -13 43
-7 9 -6 11 7 6 9 -3 16 -2 16 4 0 9 12 9 73 3 5 -1 6 -5 3 -9 -3 -5 -19 -7
-37 -4 -26 4 -30 2 -27 -14 2 -11 13 -20 27 -22 13 -2 31 -10 38 -18 8 -8 20
-14 26 -14 7 0 3 8 -8 16 -19 16 -19 16 5 9 29 -8 61 -35 42 -35 -7 0 -12 5
-12 11 0 5 -5 7 -10 4 -17 -10 -1 -25 28 -26 l27 -1 -25 -8 c-18 -6 -20 -8 -7
-9 24 -1 59 18 52 29 -3 5 -1 11 5 15 5 3 10 1 10 -4 0 -19 17 -12 23 8 6 26
-23 38 -36 15 -7 -13 -11 -14 -17 -4 -15 24 0 38 36 35 31 -2 62 -15 37 -15
-6 0 -10 -8 -8 -17 3 -20 14 -19 63 4 27 13 35 14 42 3 6 -10 9 -9 13 1 3 8 6
2 6 -13 1 -16 -5 -28 -14 -30 -10 -2 -6 -7 12 -15 14 -7 23 -10 20 -7 -3 3 4
15 15 26 12 12 18 28 14 41 -3 12 3 30 15 45 10 14 19 40 19 59 0 20 4 32 10
28 16 -10 12 -61 -5 -75 -18 -15 -19 -126 -2 -147 5 -7 7 -21 4 -32 -3 -13 0
-17 12 -14 11 3 22 -5 30 -21 8 -14 18 -23 23 -20 4 3 8 0 8 -7 0 -8 3 -9 13
0 18 14 30 2 16 -16 -9 -10 -8 -13 1 -13 7 0 19 8 27 18 14 16 14 16 9 -1 -3
-11 -2 -16 4 -12 12 7 13 38 3 49 -5 4 -8 11 -8 14 -1 4 -7 18 -15 32 -16 28
-14 66 5 93 14 20 32 6 19 -15 -15 -23 -13 -58 2 -58 8 0 12 -4 9 -10 -3 -6 1
-7 9 -4 18 7 20 16 6 30 -6 6 -2 14 11 22 12 8 18 9 15 4 -12 -20 18 -31 44
-17 14 8 21 14 17 15 -5 0 -17 -5 -28 -10 -12 -7 -19 -7 -19 -1 0 5 14 16 30
25 17 8 28 11 25 6 -7 -12 5 -40 17 -40 6 0 17 -8 25 -17 8 -10 12 -12 8 -6
-3 7 3 34 14 59 25 55 28 104 7 104 -8 0 -18 -4 -21 -10 -3 -5 -21 -10 -40
-10 -19 0 -37 5 -40 10 -9 15 -36 12 -57 -7 -23 -21 -36 -9 -16 14 23 27 28
49 19 80 -9 33 -4 56 11 47 6 -4 45 -9 87 -13 81 -6 82 -8 67 -61 -5 -18 -5
-21 3 -10 18 27 25 0 27 -109 1 -94 5 -116 28 -164 14 -31 26 -63 26 -71 0 -8
5 -18 11 -21 6 -4 8 -13 5 -21 -3 -8 -1 -14 4 -14 5 0 6 -7 3 -17 -5 -12 -3
-14 7 -8 10 6 12 4 7 -9 -4 -10 -1 -19 9 -23 8 -3 13 -12 10 -19 -3 -8 0 -14
6 -14 6 0 5 -6 -3 -17 -12 -15 -12 -16 4 -10 15 6 17 3 12 -13 -4 -12 -2 -20
5 -20 6 0 8 -4 5 -10 -3 -5 -1 -10 5 -10 6 0 10 -8 8 -17 -2 -10 5 -25 16 -34
18 -15 19 -19 6 -35 -11 -13 -11 -16 -2 -10 9 5 19 1 28 -13 17 -23 44 -27 62
-9 17 17 42 -9 42 -45 0 -59 23 -135 42 -140 10 -3 21 -1 24 4 3 5 14 9 24 9
10 0 31 5 47 12 40 16 65 20 58 8 -3 -5 3 -10 13 -10 26 0 81 -63 89 -101 3
-16 10 -32 14 -35 15 -9 83 18 102 41 17 19 17 19 12 -25 -11 -84 -3 -125 46
-225 44 -91 46 -100 22 -109 -12 -5 -14 -9 -6 -14 6 -4 13 -18 16 -32 3 -21 5
-19 7 10 2 33 3 33 10 10 4 -14 8 -42 9 -64 1 -33 -1 -37 -14 -26 -9 8 -15 8
-15 2 0 -6 9 -14 20 -17 20 -6 26 -36 21 -110 -4 -54 -13 -78 -87 -230 -29
-59 -56 -172 -43 -180 12 -8 6 -39 -10 -59 -12 -14 -10 -16 10 -16 31 1 51 17
72 60 10 19 22 42 26 50 5 8 22 41 37 73 15 31 33 62 41 68 7 7 13 18 13 26 0
8 8 27 18 41 17 24 47 85 81 162 10 23 11 23 8 -11 -2 -33 -1 -35 15 -25 20
12 24 26 8 26 -5 0 -10 8 -10 18 0 10 -5 23 -12 30 -9 9 -9 15 0 24 15 15 16
32 2 23 -12 -8 -12 -8 -1 32 5 18 6 33 1 35 -10 4 -13 23 -10 63 l2 30 8 -30
c8 -30 8 -30 9 8 1 27 -2 36 -11 31 -8 -5 -9 -2 -5 9 4 10 2 17 -4 17 -7 0 -9
10 -5 26 6 22 4 25 -9 20 -13 -4 -15 -1 -10 14 4 12 2 20 -5 20 -6 0 -9 13 -7
33 2 17 2 24 0 14 -2 -9 -9 -17 -14 -17 -6 0 -7 9 -3 23 4 12 7 50 5 85 -1 47
1 62 10 56 9 -5 10 0 6 18 -5 17 -2 30 8 38 10 8 13 21 9 33 -5 16 -3 19 10
14 17 -7 22 8 6 18 -15 9 -12 25 6 25 8 0 12 5 9 10 -4 6 -1 17 5 25 9 11 9
19 1 28 -7 10 -7 17 0 24 8 8 8 13 0 17 -7 5 -7 13 2 27 10 17 9 22 -7 31 -15
8 -16 12 -5 19 12 8 12 10 0 18 -8 5 -11 16 -7 26 4 11 0 23 -11 32 -12 9 -14
16 -7 19 8 3 6 19 -7 53 -10 27 -16 51 -13 54 6 6 -16 99 -27 111 -5 6 -9 20
-9 32 0 12 -6 27 -14 33 -7 6 -17 30 -21 54 -5 23 -10 49 -12 57 -16 70 -12
157 6 146 5 -3 7 7 5 23 -2 16 3 34 10 40 11 9 17 4 30 -24 20 -42 31 -46 22
-7 -5 22 -4 24 4 10 12 -20 34 -24 27 -5 -2 6 2 29 9 51 17 46 18 115 3 136
-7 11 -12 12 -15 3 -3 -7 -11 -10 -17 -7 -7 2 -21 -9 -31 -26 -22 -38 -38 -34
-47 9 -4 17 -9 34 -12 37 -7 7 -51 -68 -49 -83 2 -8 -9 -10 -32 -7 -30 3 -36
1 -44 -24 l-10 -27 -1 25 c-1 14 3 40 8 58 6 20 6 32 0 32 -9 0 -13 -15 -10
-34 1 -4 -10 -5 -24 -2 -20 5 -27 2 -34 -16 -7 -20 -9 -16 -13 21 -2 27 1 49
9 56 6 7 9 16 5 19 -3 4 1 4 11 0 10 -3 17 -1 17 6 0 6 4 9 9 5 5 -3 11 5 13
17 5 38 28 33 28 -7 0 -21 -4 -34 -10 -30 -6 3 -7 -1 -4 -9 8 -22 24 -10 24
19 0 16 7 25 26 29 20 5 24 10 16 18 -8 8 -15 8 -26 -1 -12 -10 -15 -9 -15 6
0 10 -1 27 -3 38 -2 17 5 22 45 29 39 8 51 7 63 -6 21 -21 10 -56 -22 -68 -13
-5 -24 -14 -24 -20 0 -6 -15 -24 -32 -41 -18 -16 -30 -29 -27 -29 15 0 69 33
69 42 0 5 7 7 15 4 9 -3 18 1 22 10 5 13 7 13 14 2 6 -9 9 -6 9 11 0 23 1 24
13 6 13 -17 15 -17 35 3 l22 22 0 -25 c0 -16 4 -23 13 -19 8 3 19 -5 25 -18
11 -21 11 -20 9 12 -1 20 -7 34 -13 33 -13 -2 -28 72 -19 88 4 5 -1 9 -9 9
-20 0 -52 48 -40 60 5 5 71 12 146 16 l137 7 7 -28 c4 -17 2 -35 -5 -44 -6 -9
-19 -30 -28 -48 -9 -17 -26 -34 -38 -37 -12 -3 -27 -17 -33 -30 -7 -15 -24
-29 -44 -34 -18 -5 -32 -14 -30 -21 1 -6 -5 -11 -13 -11 -16 0 -19 -24 -5 -55
7 -17 9 -15 9 11 1 26 8 34 45 54 25 12 52 20 62 16 11 -4 15 -2 11 6 -2 7 2
19 9 26 12 11 15 10 20 -2 8 -20 53 -21 60 -1 8 19 20 19 28 -1 4 -10 2 -13
-6 -8 -8 5 -9 2 -4 -12 5 -10 12 -44 16 -74 4 -30 8 -46 10 -35 5 41 5 145 0
145 -3 0 -5 26 -6 57 -1 32 -4 67 -8 79 -5 14 -2 26 8 37 28 27 25 27 -354 13
-80 -3 -155 -4 -167 -1 -24 6 -32 38 -12 50 20 13 280 16 295 4 11 -9 22 -8
47 5 26 14 55 17 167 14 l135 -3 3 -27 c3 -23 0 -28 -20 -28 -13 0 -30 -5 -38
-10 -11 -7 -5 -10 22 -10 32 0 39 -4 44 -25 4 -15 1 -32 -6 -40 -7 -9 -8 -15
-2 -15 5 0 12 -11 14 -25 7 -33 -37 -101 -73 -114 -14 -5 -29 -18 -32 -30 -6
-25 10 -39 19 -17 9 24 23 19 35 -11 l11 -28 9 24 c7 17 6 27 -3 34 -10 7 -9
8 3 4 8 -3 21 3 27 14 12 18 43 27 41 12 -1 -5 0 -17 1 -28 1 -15 4 -13 11 10
6 19 5 48 -3 82 -8 40 -8 56 1 66 9 11 8 17 -4 27 -19 16 -19 49 0 56 21 8 19
21 -5 27 -20 5 -28 41 -12 51 5 3 44 7 87 10 43 3 81 8 83 11 3 3 -38 5 -91 5
-96 0 -97 0 -97 25 0 20 6 25 38 30 64 11 68 13 29 14 -48 1 -77 16 -77 40 0
17 13 19 116 26 102 6 117 5 135 -11 25 -22 24 -33 -3 -43 -22 -8 -21 -9 10
-15 42 -10 62 -44 36 -63 -16 -11 -16 -13 -1 -13 9 0 25 -10 36 -22 20 -21 21
-21 40 -4 18 16 34 17 160 11 145 -8 166 -15 159 -52 -2 -9 -14 -20 -28 -24
-24 -7 -24 -7 -2 -8 28 -1 52 -45 34 -63 -8 -8 -8 -17 -1 -30 7 -13 7 -30 -2
-56 -24 -73 -42 -95 -94 -112 -27 -9 -51 -23 -54 -31 -3 -11 -1 -11 10 -3 19
15 89 27 89 15 0 -21 39 3 49 30 13 37 44 41 35 5 -5 -21 -3 -24 15 -19 15 4
21 13 20 32 0 22 -1 23 -8 6 -5 -13 -10 2 -14 50 -4 42 -3 73 4 81 7 9 6 19
-3 33 -10 17 -10 25 0 42 11 18 11 23 -3 33 -10 7 -15 21 -13 32 3 16 12 19
66 19 45 0 66 -5 72 -15 15 -24 12 -40 -12 -49 l-22 -8 23 -6 c20 -5 23 -11
19 -42 -6 -54 21 -68 136 -73 75 -3 94 -1 105 12 15 17 22 105 9 112 -12 8
-10 52 3 60 8 5 4 13 -11 24 -19 14 -21 20 -11 38 7 12 17 22 24 23 7 0 2 4
-10 9 -16 6 -23 18 -23 35 0 24 2 25 69 25 59 0 69 -3 74 -19 5 -22 -10 -41
-32 -41 -10 0 -6 -5 9 -13 29 -15 39 -54 15 -63 -14 -6 -14 -8 1 -19 13 -9 18
-32 21 -91 4 -80 -4 -170 -14 -160 -3 3 -20 -6 -37 -19 -44 -36 -50 -40 -65
-43 -23 -5 -333 -4 -338 2 -8 8 -33 -5 -33 -18 0 -7 24 -11 65 -12 36 -1 68
-3 70 -5 9 -9 223 -1 242 10 28 15 37 14 27 -2 -5 -7 -2 -5 8 5 9 10 19 18 23
18 3 0 23 11 43 25 20 14 39 25 42 25 3 0 6 -25 6 -55 1 -30 5 -77 9 -103 7
-43 8 -45 17 -22 6 16 5 33 -1 48 -15 31 -14 85 0 76 6 -3 9 -15 6 -25 -3 -11
-1 -19 4 -19 5 0 9 7 9 16 0 12 12 15 53 15 28 0 70 1 92 1 63 1 185 -14 191
-24 3 -4 19 1 35 12 16 12 34 18 39 15 6 -4 18 -1 26 6 13 10 17 10 24 0 6
-10 10 -9 19 5 11 17 11 17 6 -3 -4 -13 -2 -23 3 -23 11 0 33 70 26 82 -3 4 2
18 10 30 9 12 16 32 16 43 0 11 9 31 20 45 12 16 17 34 13 51 -3 17 1 32 13
44 13 13 15 20 6 23 -15 5 -16 34 0 50 15 15 131 16 197 0 39 -9 53 -9 65 1
13 11 11 19 -15 67 -31 58 -36 80 -18 86 26 9 141 -8 149 -22 15 -23 12 -38
-7 -43 -14 -3 -13 -6 9 -15 15 -6 32 -20 38 -32 11 -21 9 -23 -35 -33 -15 -4
-13 -5 7 -6 29 -1 63 -40 55 -63 -2 -7 1 -24 8 -38 7 -14 15 -43 18 -65 3 -22
11 -67 17 -100 11 -56 14 -145 5 -153 -2 -2 -14 3 -26 12 -13 8 -32 13 -44 10
-17 -4 -24 3 -43 47 -13 28 -28 74 -34 103 -6 28 -17 57 -24 65 -8 9 -44 15
-106 18 l-93 5 -33 -64 c-36 -72 -73 -111 -117 -125 -31 -10 -48 -43 -22 -43
9 0 17 4 19 9 2 4 14 12 27 16 14 4 21 3 18 -2 -4 -5 0 -10 8 -10 8 0 15 7 15
14 0 8 4 11 10 8 6 -3 10 4 10 17 l0 22 15 -21 c13 -18 28 -22 136 -28 106 -6
123 -5 131 8 17 31 34 8 33 -46 0 -56 -9 -77 -30 -77 -14 0 -29 27 -26 47 3
19 -11 22 -139 29 -107 6 -122 5 -117 -8 3 -8 -3 -22 -14 -31 -17 -15 -18 -15
-13 12 8 39 -10 47 -34 16 -11 -14 -25 -25 -31 -25 -6 0 -8 -7 -4 -17 4 -11 3
-14 -5 -9 -14 9 -37 -4 -37 -21 0 -7 -4 -13 -9 -12 -5 0 -12 -5 -16 -12 -5 -6
-15 -9 -23 -6 -12 4 -14 16 -10 49 6 46 23 76 24 42 0 -17 1 -17 9 4 5 12 15
22 22 22 9 0 9 3 -2 10 -9 6 -17 5 -22 -3 -6 -9 -10 -9 -17 2 -7 11 -11 10
-20 -5 -10 -18 -10 -18 -11 4 0 29 -14 28 -28 -3 -6 -14 -16 -25 -22 -25 -5 0
-10 -5 -10 -11 0 -23 -29 -37 -86 -40 -32 -2 -63 -6 -69 -10 -5 -3 -35 -3 -65
0 -64 7 -123 -6 -116 -26 3 -7 -1 -13 -9 -13 -8 0 -15 -5 -15 -11 0 -5 -4 -8
-9 -5 -13 9 -44 -31 -38 -49 4 -8 2 -15 -3 -15 -5 0 -12 16 -16 35 -3 19 -10
38 -15 41 -5 3 -7 9 -4 14 3 5 8 37 11 70 6 55 5 60 -14 60 -14 0 -24 -10 -32
-35 -15 -45 -31 -37 -20 10 4 19 4 37 -1 40 -4 3 -28 -14 -51 -39 -33 -34 -54
-46 -90 -54 -30 -6 -50 -6 -56 0 -6 6 -53 9 -107 9 -53 -1 -94 2 -92 6 3 5 -6
9 -19 9 -48 3 -55 11 -48 51 6 35 5 37 -9 18 -8 -11 -16 -29 -18 -40 -3 -11
-11 -20 -19 -20 -8 0 -18 -4 -23 -10 -4 -5 -5 4 -2 22 5 33 -11 56 -21 29 -3
-9 -15 -16 -25 -16 -10 0 -18 -5 -17 -12 2 -6 -14 -16 -35 -21 -26 -6 -37 -14
-35 -25 2 -9 -4 -18 -13 -20 -18 -3 -28 22 -30 78 -1 24 -3 28 -6 13 -2 -13
-9 -23 -15 -23 -6 0 -20 -7 -30 -17 -17 -15 -18 -15 -18 0 0 10 -6 16 -12 15
-7 -2 -14 7 -16 20 -2 12 -9 22 -15 22 -11 0 -54 -41 -49 -47 7 -10 -13 -63
-24 -63 -8 0 -14 -4 -14 -10 0 -13 6 -13 30 0 15 8 20 6 26 -13 5 -12 8 -26 9
-31 0 -5 6 -11 13 -14 13 -4 12 24 -2 47 -7 11 -5 13 8 8 42 -16 67 -18 81 -7
12 10 13 3 10 -47 l-4 -58 16 33 c18 37 39 44 28 10 -8 -28 -6 -118 3 -132 3
-6 5 -18 4 -28 -2 -9 2 -19 7 -22 6 -4 8 -13 4 -21 -3 -9 0 -22 6 -29 7 -8 9
-25 5 -40 -5 -21 -3 -25 9 -20 12 4 14 1 10 -15 -3 -12 -1 -21 4 -21 5 0 9
-13 8 -29 -1 -21 2 -28 12 -24 7 3 13 -1 13 -10 0 -19 50 -33 60 -16 4 6 13 8
19 4 8 -5 10 2 6 22 -5 22 -4 25 5 13 9 -12 11 -10 6 10 -3 14 -1 42 3 62 5
20 5 55 1 77 -4 22 -3 38 1 35 5 -3 9 0 9 6 0 6 -7 13 -15 16 -8 4 -13 10 -10
14 3 4 -2 13 -10 20 -8 7 -15 18 -15 24 0 6 -9 20 -21 29 -12 11 -18 25 -15
33 3 9 6 20 6 25 0 5 5 9 10 9 6 0 10 -7 10 -16 0 -8 5 -12 10 -9 6 3 10 -3
10 -14 0 -30 17 -26 28 7 6 15 11 21 11 15 1 -7 6 -13 11 -13 6 0 9 3 8 8 0 4
2 15 6 24 4 9 3 26 -4 37 -9 17 -8 21 4 21 21 0 87 -46 78 -55 -4 -3 7 -4 23
0 22 5 26 4 15 -4 -8 -5 -11 -13 -7 -17 3 -4 13 -2 21 5 11 9 15 8 19 -3 3 -8
25 -17 49 -21 24 -4 48 -11 54 -16 8 -6 14 -4 18 6 3 8 11 15 17 15 8 0 8 -4
-1 -15 -10 -12 -9 -15 8 -15 11 0 22 6 25 13 3 8 11 3 25 -13 12 -14 21 -20
22 -13 0 6 -5 15 -10 18 -6 4 -8 11 -5 16 18 28 93 -16 81 -47 -4 -10 3 -32
19 -55 14 -21 25 -45 25 -53 0 -8 4 -17 8 -20 5 -3 8 14 8 38 -1 24 -4 40 -7
34 -4 -6 -9 -6 -14 2 -4 7 -2 16 5 20 16 10 2 33 -16 26 -7 -3 -11 0 -8 7 2 7
-14 34 -36 61 -44 53 -49 75 -22 92 16 10 17 7 17 -27 0 -28 7 -44 29 -64 16
-14 35 -24 42 -21 8 3 15 -2 16 -12 0 -9 2 -22 2 -29 1 -6 5 -15 10 -20 5 -4
6 -3 2 5 -4 7 -1 12 8 12 17 0 22 -25 7 -34 -11 -7 -2 -46 11 -46 5 0 6 9 3
20 -4 14 -2 20 7 18 19 -4 28 -21 22 -40 -3 -10 -1 -18 4 -18 15 0 25 -52 12
-60 -8 -5 -9 -13 -2 -26 9 -16 34 -123 37 -159 1 -11 10 -35 30 -82 8 -18 12
-39 9 -48 -4 -8 -2 -15 4 -15 5 0 8 -27 7 -62 -1 -35 -4 -63 -5 -63 -3 0 -8
-42 -13 -102 -1 -13 -7 -23 -13 -23 -7 0 -11 -23 -10 -64 0 -35 4 -62 9 -59 4
2 8 -2 8 -9 2 -18 1 -21 -7 -42 -6 -15 -4 -18 9 -13 13 5 18 -2 23 -31 8 -44
31 -82 50 -82 13 0 58 73 59 95 0 6 3 15 6 20 4 6 14 33 23 62 31 94 94 131
137 80 10 -12 18 -25 19 -29 0 -7 54 -131 69 -158 10 -19 51 -26 53 -8 2 21 5
32 11 48 10 28 19 75 20 116 1 28 6 40 14 37 9 -4 10 3 4 24 -5 18 -3 37 6 53
11 21 13 22 13 6 0 -34 7 -13 13 39 4 37 4 44 -3 25 -9 -23 -9 -23 -5 5 13 82
17 195 7 195 -6 0 -14 16 -18 35 -3 19 -10 35 -15 35 -17 0 -9 20 9 21 13 0
12 2 -5 9 -13 5 -23 14 -23 21 0 6 6 9 14 6 8 -3 16 -1 18 4 2 6 12 -24 23
-65 10 -42 24 -81 32 -87 7 -6 13 -18 13 -26 0 -25 77 -93 105 -93 14 0 25 4
25 8 0 5 7 17 15 28 14 18 14 17 10 -16 -5 -34 -5 -34 5 -6 5 16 7 32 5 35 -2
4 -5 37 -7 74 -2 50 -6 67 -17 67 -8 0 -11 3 -8 7 4 3 2 12 -4 20 -6 7 -8 13
-4 13 3 0 -3 12 -14 26 -28 36 -28 57 1 49 16 -6 20 -4 15 7 -3 8 1 15 8 15 7
0 11 -6 8 -13 -2 -6 0 -15 6 -19 6 -3 11 -1 11 4 0 6 10 11 23 12 22 1 22 1 1
7 -38 12 -2 30 50 26 27 -1 45 0 42 4 -4 3 -21 7 -38 8 -17 2 -42 5 -54 8 -13
4 -26 2 -29 -4 -10 -16 -28 -12 -21 5 3 9 -1 18 -9 21 -35 14 -8 19 105 22
103 3 121 2 126 -12 3 -9 12 -16 20 -16 22 0 16 17 -8 24 -21 6 -22 7 -6 20
17 12 16 14 -5 24 -17 8 -18 11 -5 11 15 1 16 4 5 29 -15 34 -37 53 -57 47
-17 -5 -83 -11 -220 -19 -52 -2 -85 -3 -72 0 26 6 30 26 5 22 -10 -2 -17 3
-16 10 2 6 -2 12 -7 12 -6 0 -10 6 -10 14 0 13 -19 26 -47 32 -20 4 -15 -10 7
-23 11 -7 26 -37 35 -68 9 -30 24 -59 33 -65 10 -5 12 -10 5 -10 -7 0 -13 -5
-13 -11 0 -7 20 -10 54 -7 49 3 53 1 45 -15 -7 -13 -5 -22 7 -34 15 -16 15
-17 0 -29 -13 -9 -14 -13 -4 -17 9 -4 7 -6 -4 -6 -10 -1 -21 12 -29 34 -8 22
-20 35 -31 35 -10 0 -18 -1 -18 -2 0 -12 39 -99 54 -120 10 -16 16 -35 12 -43
-3 -9 -2 -13 4 -10 6 4 10 -10 10 -33 0 -30 -4 -39 -17 -39 -25 -1 -67 41 -83
82 -8 19 -17 35 -22 35 -4 0 -8 6 -8 13 -1 6 -9 30 -20 52 -11 22 -19 46 -20
53 0 15 -26 16 -36 0 -4 -6 0 -16 9 -22 18 -14 23 -35 13 -58 -10 -22 -28 -24
-20 -3 4 8 1 15 -5 15 -6 0 -8 7 -4 17 4 10 2 14 -4 10 -13 -8 -47 29 -38 42
3 6 2 11 -3 11 -11 0 -25 38 -22 59 1 8 -3 17 -8 20 -16 10 -19 103 -5 108 7
3 13 -2 13 -10 0 -8 8 -18 17 -21 12 -5 14 -9 5 -18 -16 -16 -15 -28 3 -28 9
0 12 -6 9 -15 -4 -8 1 -17 10 -21 9 -3 16 -11 15 -18 -3 -19 12 -46 27 -46 21
0 19 10 -22 107 -8 17 -14 40 -14 51 0 25 -16 37 -27 20 -5 -9 -9 -3 -13 17
-10 51 -3 60 43 61 23 0 49 3 57 7 12 6 18 -1 25 -25 6 -21 18 -34 30 -37 19
-3 19 -2 3 16 -10 11 -20 42 -23 69 l-6 49 13 -35 13 -35 70 1 c99 0 245 15
251 26 10 16 22 8 28 -19 5 -17 3 -29 -6 -35 -10 -8 -10 -11 0 -15 6 -2 12
-12 12 -21 0 -9 12 -39 25 -67 14 -27 25 -55 25 -61 0 -7 7 -25 15 -40 8 -16
15 -38 15 -49 0 -22 20 -82 34 -104 6 -10 6 -16 -2 -19 -7 -2 -4 -14 8 -35 24
-43 52 -145 44 -159 -5 -8 -1 -9 11 -5 18 7 18 -2 0 -45 -4 -11 -3 -18 4 -18
6 0 11 6 11 13 0 6 9 -6 20 -28 27 -56 42 -73 70 -75 40 -3 52 -1 45 10 -3 6
1 10 9 10 16 0 57 77 63 120 9 60 10 236 1 247 -5 7 -7 17 -4 22 4 5 2 12 -4
16 -5 3 -10 19 -10 36 0 16 -4 29 -9 29 -8 0 -22 30 -25 55 -1 6 -12 31 -25
58 -13 26 -20 54 -17 62 3 8 1 15 -4 15 -6 0 -10 14 -10 30 0 17 5 30 11 30 5
0 9 9 7 21 -3 20 1 20 102 21 83 0 106 -4 116 -16 6 -9 14 -13 17 -9 4 3 7 1
7 -5 0 -16 -18 -24 -23 -10 -2 7 -8 9 -13 5 -5 -4 -2 -12 5 -17 8 -4 15 -20
17 -36 2 -15 8 -32 13 -37 6 -6 11 -21 11 -34 0 -13 5 -23 11 -23 6 0 9 -9 6
-20 -3 -11 -1 -20 4 -20 5 0 9 -7 9 -15 0 -8 4 -15 10 -15 5 0 9 -10 7 -22 -1
-17 3 -23 18 -24 15 -1 16 0 2 3 -22 6 -12 23 13 23 11 0 27 12 37 28 10 15
21 29 24 32 10 8 14 63 6 77 -4 7 -10 43 -12 80 -3 41 -1 62 4 54 5 -8 18 -12
30 -8 12 3 21 1 21 -4 0 -5 -6 -9 -12 -9 -10 0 -9 -3 1 -9 7 -5 11 -13 7 -19
-3 -5 1 -24 10 -41 8 -17 13 -35 10 -40 -10 -15 17 -28 54 -27 49 1 75 24 76
66 1 19 6 51 11 70 8 30 13 35 35 32 46 -6 192 27 253 58 216 105 351 335 315
537 -29 170 -212 449 -345 528 -123 72 -309 91 -605 61 -91 -9 -190 -19 -220
-22 -30 -2 -77 -7 -105 -9 -181 -17 -393 -27 -685 -30 -184 -2 -412 -7 -505
-10 -158 -6 -172 -5 -187 12 -16 17 -16 20 4 51 11 18 31 35 47 38 14 3 42 13
61 22 30 14 83 17 390 19 195 2 402 8 460 13 226 22 502 39 648 40 85 1 190 7
235 15 103 16 323 19 379 5 68 -17 119 -41 168 -79 64 -50 176 -167 216 -226
19 -27 48 -68 64 -90 39 -54 104 -185 130 -265 73 -218 -31 -499 -247 -668
-45 -35 -201 -112 -268 -132 -60 -17 -167 -28 -192 -19 -16 6 -23 17 -23 34 0
14 -4 25 -10 25 -5 0 -7 -13 -4 -29 5 -22 0 -37 -15 -57 -28 -35 -27 -39 14
-58 21 -10 33 -22 29 -29 -3 -7 2 -3 10 7 14 17 16 17 16 3 0 -11 6 -15 18
-11 15 5 15 4 1 -8 -9 -7 -17 -17 -19 -23 -1 -5 -5 -16 -8 -24 -3 -7 0 -16 6
-20 5 -3 9 -32 8 -63 -2 -59 8 -96 18 -68 3 8 8 50 10 93 3 57 2 76 -7 71 -7
-4 -8 -3 -4 2 5 5 13 10 18 10 5 1 13 2 18 3 5 0 12 9 15 19 5 14 17 18 64 19
68 1 112 16 112 40 0 13 3 14 11 6 9 -9 21 -8 48 2 59 22 92 27 106 15 10 -9
16 -7 24 9 7 13 8 22 1 26 -10 6 -14 -1 -11 -19 1 -5 -5 -3 -14 4 -18 15 -13
21 29 38 24 11 28 11 23 -3 -5 -12 -3 -13 12 -3 19 12 17 35 -3 51 -7 6 -4 7
6 3 10 -3 20 -1 24 5 3 6 19 7 35 4 17 -4 29 -2 29 3 0 6 8 8 19 5 10 -3 22 1
26 7 5 9 1 10 -14 5 -25 -8 -27 0 -6 22 8 8 12 20 8 26 -4 6 0 8 9 4 10 -3 15
0 14 11 0 9 5 16 12 15 6 -2 12 0 13 5 3 36 13 59 37 83 15 15 36 42 46 60
l19 32 -24 -6 c-22 -6 -21 -4 8 23 21 19 30 37 28 50 -2 11 -1 20 4 20 4 0 6
17 4 38 -2 34 -1 35 5 7 l8 -30 13 40 c8 22 21 49 30 59 9 11 10 16 4 12 -9
-5 -13 1 -13 19 0 15 4 24 10 20 6 -3 10 3 10 14 0 15 -4 19 -17 14 -16 -6
-16 -4 2 16 15 17 16 24 6 30 -7 5 -13 25 -13 44 0 20 -6 41 -14 48 -8 6 -14
19 -14 28 0 14 2 14 11 1 9 -12 10 -12 5 3 -3 10 -6 23 -6 28 0 6 -5 7 -12 3
-7 -5 -8 -3 -2 7 12 21 14 88 2 96 -7 4 -8 1 -3 -7 5 -9 4 -11 -3 -6 -6 4 -9
21 -7 39 l5 32 -13 -34 c-15 -39 -24 -33 -25 16 -1 26 3 31 18 28 17 -3 17 -1
4 31 -13 30 -12 34 1 34 8 0 15 4 15 9 0 15 -29 33 -45 27 -13 -5 -20 8 -17
35 1 3 -5 6 -13 6 -7 0 -13 -8 -12 -18 1 -10 5 -15 9 -13 4 3 8 0 8 -5 0 -6
-9 -11 -19 -11 -16 0 -19 7 -19 45 0 25 4 45 9 45 16 0 10 36 -8 52 -23 19
-53 30 -53 19 0 -5 9 -11 20 -14 11 -3 20 -11 20 -19 0 -8 -3 -9 -8 -3 -12 17
-42 17 -42 0 0 -8 6 -15 13 -15 9 0 9 -2 -1 -8 -7 -5 -10 -16 -6 -25 3 -9 2
-17 -4 -17 -5 0 -12 9 -15 20 -3 11 0 20 6 20 8 0 7 3 -1 9 -8 4 -14 12 -15
17 -1 5 -9 8 -17 6 -13 -3 -13 -2 0 7 10 7 11 11 3 11 -7 0 -13 7 -13 15 0 8
-7 15 -16 15 -9 0 -12 5 -8 11 4 8 16 1 34 -20 34 -39 41 -39 34 -1 -4 18 -2
30 4 30 5 0 8 10 5 23 -10 45 -13 50 -26 39 -29 -23 -71 7 -52 38 3 5 2 10 -4
10 -6 0 -8 6 -5 14 3 8 0 17 -6 21 -6 3 -10 3 -9 -2 6 -32 -4 -35 -25 -9 -14
16 -22 34 -20 41 3 6 -2 12 -10 12 -8 0 -13 -4 -10 -9 3 -4 1 -8 -5 -8 -5 0
-13 5 -17 11 -5 8 -9 8 -14 -1 -6 -9 -10 -7 -14 7 -10 32 -62 73 -75 60 -8 -8
-15 -6 -25 8 -8 11 -19 16 -30 12 -10 -4 -15 -3 -11 3 3 6 1 10 -6 10 -7 0
-21 8 -32 18 -19 16 -20 16 -15 -5 3 -12 0 -27 -6 -32 -9 -8 -13 -7 -13 4 0 8
5 11 10 8 6 -3 7 -1 3 6 -9 14 -26 5 -26 -15 0 -11 -8 -7 -27 11 -31 28 -43
31 -43 13 0 -8 -3 -9 -8 -3 -9 13 -31 17 -51 10 -13 -5 -14 -7 -1 -15 9 -6 10
-10 3 -10 -6 0 -18 9 -25 19 -12 17 -21 19 -69 12 -31 -4 -69 -17 -86 -29 -17
-12 -35 -22 -40 -22 -4 0 -1 5 7 10 11 8 6 10 -20 6 -19 -2 -35 -5 -35 -5 0
-1 -103 -2 -229 -2 -212 0 -229 -1 -249 -20 -11 -10 -26 -19 -31 -19 -6 0 -4
5 4 11 11 7 -6 9 -60 5 -159 -12 -335 -15 -310 -7 23 8 23 9 3 10 -45 2 -73
-28 -40 -43 6 -3 -17 -3 -53 0 -47 3 -61 2 -50 -6 13 -9 -31 -9 -92 -1 -18 2
-6 20 20 29 17 7 21 11 10 11 -10 1 -18 5 -18 10 0 14 37 23 89 23 35 0 40 2
21 7 -25 7 -24 8 7 15 18 4 37 5 43 1 5 -3 10 -2 10 4 0 18 -25 18 -68 -1 -24
-10 -54 -18 -67 -18 -12 0 -28 -7 -36 -16 -11 -14 -13 -14 -21 0 -5 9 -17 16
-26 16 -14 0 -14 -2 -3 -9 11 -7 4 -11 -25 -16 -21 -4 -53 -11 -70 -16 -34
-11 -124 -8 -124 4 0 4 -9 7 -20 7 -11 0 -20 -4 -20 -9 0 -4 -12 -7 -26 -5
-15 1 -36 -1 -48 -6 -11 -5 -17 -9 -12 -9 12 -1 -24 -41 -37 -41 -6 0 -5 5 1
13 8 9 -1 12 -41 11 -29 0 -65 -1 -82 -3 -26 -2 -28 -3 -10 -11 11 -5 14 -9 7
-9 -7 -1 -22 4 -33 9 -13 7 -19 7 -19 0 0 -5 -9 -10 -21 -10 -11 0 -18 4 -14
10 6 9 -74 5 -125 -7 -14 -3 -34 -8 -45 -10 -11 -2 -21 -8 -23 -13 -2 -6 -15
-7 -28 -4 -13 3 -24 2 -24 -2 0 -5 -21 -7 -46 -5 -36 2 -45 0 -39 -10 6 -9 3
-11 -8 -6 -31 12 -17 -3 16 -17 29 -13 18 -14 -118 -11 -154 3 -221 11 -242
27 -7 5 -22 9 -35 7 -13 -1 -30 1 -38 4 -8 4 -76 9 -150 12 -74 2 -165 8 -203
13 -37 4 -73 5 -79 1 -7 -4 -19 -4 -28 1 -9 5 -33 5 -53 1 -20 -5 -38 -7 -40
-4 -5 4 -47 10 -90 12 -16 0 -26 5 -23 9 2 4 -11 6 -30 4 -19 -2 -40 0 -47 6
-6 5 -25 12 -41 16 -23 6 -27 9 -15 17 11 7 9 9 -9 9 -13 0 -20 -4 -17 -10 3
-5 2 -10 -4 -10 -5 0 -12 4 -15 9 -3 4 -49 9 -103 9 -67 2 -93 -1 -83 -8 13
-8 12 -10 -2 -10 -11 0 -18 8 -18 20 0 17 -7 20 -39 20 -22 0 -43 -5 -47 -12
-4 -6 -3 -8 3 -5 6 4 14 0 17 -9 5 -13 2 -14 -11 -8 -28 12 -221 16 -228 4 -4
-6 -15 0 -27 15 -11 14 -22 24 -25 22 -2 -3 -22 -1 -45 4 -45 11 -82 3 -72
-13 5 -7 2 -8 -7 -2 -16 10 -198 14 -204 5 -2 -4 26 -8 63 -10 37 -2 77 -4 89
-5 36 -2 38 -16 2 -16 -22 0 -29 -3 -21 -9 9 -5 2 -10 -23 -14 -26 -4 -45 -1
-61 10 -14 9 -27 13 -31 10 -3 -4 -11 1 -18 9 -10 14 -15 14 -34 4 -15 -8 -21
-8 -17 -1 4 6 2 11 -4 11 -6 0 -8 5 -4 11 4 7 10 7 16 1 6 -6 17 -8 25 -5 12
5 12 7 1 15 -10 7 -8 8 6 6 10 -2 21 3 23 10 3 8 -6 12 -27 12 -17 0 -29 -4
-26 -9 3 -5 -1 -12 -10 -15 -31 -12 -38 -6 -16 14 12 11 26 20 31 20 6 0 8 7
5 15 -4 9 -16 14 -28 13 -11 -2 -22 2 -23 7 -2 6 13 10 32 9 19 0 32 3 28 9
-3 5 -30 6 -60 3 -37 -4 -63 -1 -81 8 -15 8 -43 15 -62 17 -46 4 -58 11 -34
20 11 5 -14 7 -61 6 -44 -2 -89 -6 -100 -11 -16 -6 -17 -6 -5 3 12 8 5 11 -30
12 -73 3 -78 4 -86 12 -4 4 -10 7 -13 6 -3 -1 -33 -7 -66 -15z m352 -354 c124
-16 363 -79 387 -101 6 -5 1 -7 -10 -4 -10 2 -73 16 -139 30 -66 14 -160 34
-210 45 -49 10 -104 19 -121 20 -47 0 -119 -28 -221 -87 -50 -29 -95 -53 -99
-53 -4 0 -40 -21 -81 -46 -49 -30 -88 -65 -118 -104 -25 -32 -45 -61 -45 -65
0 -4 -18 -32 -40 -62 -67 -94 -45 -42 30 70 94 140 127 167 360 294 70 38 148
64 217 72 6 0 47 -4 90 -9z m4538 -60 c3 5 16 8 28 5 12 -2 49 -6 82 -9 99 -9
137 -17 205 -48 119 -53 255 -216 258 -308 l2 -45 -45 91 c-77 159 -203 257
-364 284 -105 18 -119 7 -18 -13 191 -38 317 -142 383 -317 26 -69 28 -86 29
-210 0 -135 0 -135 -36 -210 -40 -82 -116 -165 -184 -200 -22 -12 -71 -30
-109 -40 -80 -23 -106 -40 -60 -40 16 0 44 5 62 10 17 6 46 14 62 19 19 6 28
6 25 0 -4 -5 -13 -9 -22 -9 -9 0 -24 -7 -34 -16 -9 -8 -27 -16 -40 -17 -13 -1
-29 -7 -34 -15 -14 -18 -44 -5 -56 24 -13 35 -32 29 -57 -15 -24 -43 -28 -71
-11 -88 6 -6 13 -29 15 -51 4 -34 1 -43 -18 -56 -12 -9 -25 -16 -29 -16 -16 0
-43 58 -40 89 1 18 -3 39 -9 46 -9 10 -7 20 5 39 23 35 17 72 -12 68 -30 -4
-68 17 -55 30 6 6 8 18 5 27 -4 13 -3 14 5 1 9 -12 13 -12 30 3 29 26 45 22
26 -8 -16 -24 -15 -25 5 -25 17 0 21 -6 21 -30 0 -16 2 -30 5 -30 3 0 19 16
36 35 17 19 35 33 39 30 5 -3 14 1 22 8 7 8 37 16 66 20 109 13 245 103 290
194 44 87 55 141 50 247 -4 85 -10 113 -38 180 -47 111 -125 194 -223 234
-151 63 -325 71 -612 26 -49 -7 -108 -16 -130 -19 -22 -4 -83 -13 -135 -22
-103 -16 -323 -18 -495 -3 -55 4 -212 6 -350 4 -517 -8 -645 -9 -645 -1 0 4
15 7 33 7 18 0 38 5 43 10 6 6 60 14 120 18 103 7 106 7 49 13 l-60 6 80 3
c44 1 91 4 105 6 14 2 89 6 168 10 101 4 142 3 142 -5 0 -6 8 -11 18 -11 14 0
15 2 2 10 -10 6 80 10 255 11 333 1 303 2 345 -8 l35 -9 -27 -7 c-15 -4 -85
-5 -155 -1 -101 4 -124 3 -109 -7 24 -15 363 -22 431 -8 74 14 79 15 95 22 8
3 42 8 75 11 93 7 155 18 162 29 3 6 -13 7 -43 3 -27 -3 -74 -8 -104 -12 -30
-3 -58 -8 -62 -10 -4 -3 -29 -7 -55 -9 -26 -3 -56 -8 -65 -11 -10 -3 -18 -1
-18 5 0 6 11 11 25 11 14 0 25 4 25 8 0 11 122 29 290 43 74 6 167 15 205 18
39 4 75 3 82 -2 6 -4 14 -3 18 3z m-1307 -226 c14 -4 22 -14 22 -29 0 -21 -7
-23 -105 -35 -128 -16 -404 -19 -406 -5 -1 6 10 18 24 28 20 16 55 20 213 28
104 5 194 11 199 13 15 6 28 6 53 0z m-2518 -10 c19 -4 35 -15 40 -28 8 -21 8
-21 16 -1 11 29 23 35 77 35 34 0 53 -6 67 -20 24 -24 25 -36 6 -43 -23 -9
-315 -7 -321 3 -9 14 7 41 29 50 26 11 45 12 86 4z m2527 -75 c16 -16 4 -47
-20 -53 -37 -8 -379 -28 -437 -24 -52 3 -55 5 -58 31 -3 22 1 27 20 28 45 1
389 22 464 27 11 1 25 -3 31 -9z m461 -17 c7 -9 11 -21 9 -27 -4 -11 -251 -15
-261 -4 -11 11 6 40 27 48 12 5 64 6 117 3 71 -3 98 -8 108 -20z m-2764 2 c23
-22 20 -43 -6 -49 -13 -2 -93 -4 -178 -2 l-155 2 0 25 c0 25 1 25 93 26 51 1
95 4 99 8 14 14 131 6 147 -10z m3482 -36 c-3 -18 -13 -38 -21 -44 -8 -6 -15
-23 -15 -37 0 -16 -8 -31 -20 -37 -14 -7 -20 -21 -20 -45 0 -22 -7 -39 -19
-47 -30 -21 -36 -71 -11 -93 11 -10 20 -29 20 -42 0 -13 9 -31 20 -40 11 -10
20 -27 20 -39 0 -12 9 -33 20 -47 11 -14 20 -37 20 -52 0 -14 5 -36 11 -47 8
-16 8 -19 -1 -13 -9 6 -10 -1 -5 -25 8 -38 -4 -50 -52 -50 -47 0 -118 74 -127
132 -6 42 -35 108 -46 108 -9 0 -44 -48 -64 -89 -29 -55 -108 -160 -125 -166
-9 -2 -31 -7 -48 -10 l-33 -5 -2 47 c0 27 -1 55 0 63 1 8 4 78 8 155 4 77 11
146 17 153 6 8 6 12 -2 12 -14 0 -15 57 0 65 6 5 4 11 -6 19 -10 7 -16 21 -14
32 5 21 50 30 106 19 27 -5 33 -11 33 -31 0 -14 -7 -27 -17 -31 -14 -5 -13 -8
5 -14 24 -9 30 -47 11 -66 -8 -8 -5 -13 10 -18 25 -8 59 14 40 25 -16 10 5 47
32 55 15 5 17 10 9 20 -8 10 -8 19 2 34 11 18 23 21 78 21 46 0 61 3 50 10 -8
5 -32 10 -52 10 -43 0 -54 11 -36 40 10 16 23 20 65 20 29 0 53 5 53 10 0 6
-18 10 -40 10 -43 0 -50 12 -23 42 13 15 31 18 96 18 l80 0 -7 -32z m-703 -34
c9 -3 17 -17 17 -30 0 -24 -1 -24 -97 -23 -130 2 -216 11 -220 25 -2 7 4 20
14 29 15 16 31 17 143 12 70 -3 134 -9 143 -13z m-2737 -19 c9 -14 14 -28 11
-32 -5 -5 -172 -7 -232 -3 -11 1 -41 -2 -67 -6 -67 -9 -98 0 -98 32 l0 25 95
-2 c52 -1 98 1 102 4 3 4 44 7 89 7 78 0 85 -2 100 -25z m-1066 -56 c96 0 194
-3 218 -6 47 -6 62 -24 44 -53 -9 -14 -8 -21 3 -30 17 -14 20 -60 5 -60 -6 0
-5 -9 3 -22 8 -14 15 -58 16 -106 2 -90 -1 -96 -67 -142 -12 -7 -26 -27 -32
-43 -13 -38 -13 -72 0 -39 5 12 16 22 24 22 8 0 21 9 28 19 8 11 23 18 34 17
14 -2 20 4 24 22 6 32 30 42 30 13 0 -12 6 -24 14 -27 7 -3 14 -16 14 -29 0
-14 -4 -22 -8 -20 -4 3 -10 -2 -14 -10 -11 -29 -54 -5 -48 27 1 4 -6 4 -15 1
-11 -4 -13 -8 -5 -11 9 -3 6 -12 -7 -31 -13 -18 -17 -32 -11 -41 5 -9 5 -19
-2 -27 -7 -9 -7 -13 0 -13 8 0 8 -9 0 -31 -11 -33 -5 -169 8 -191 5 -7 7 -23
5 -35 -1 -13 3 -23 9 -23 9 0 10 -13 5 -46 -4 -29 -3 -44 3 -40 6 3 15 -16 22
-44 7 -28 16 -53 21 -56 5 -3 9 -22 9 -44 0 -52 -23 -59 -49 -14 -25 42 -26
51 -6 34 11 -9 15 -9 15 -1 0 7 5 9 10 6 6 -3 10 1 10 9 0 12 -6 13 -32 5 -18
-5 -34 -9 -35 -9 -2 0 -3 11 -3 23 0 13 -8 34 -19 46 -10 11 -24 42 -30 69 -7
26 -16 54 -21 63 -4 8 -6 35 -3 60 3 24 -2 91 -11 148 -16 96 -16 104 0 115
13 10 14 17 5 34 -11 21 -31 30 -31 14 0 -4 -9 -8 -20 -8 -11 0 -20 3 -20 7 0
11 -128 11 -135 -1 -4 -6 18 -10 64 -10 39 0 71 -4 71 -9 0 -15 -24 -19 -86
-15 -60 5 -94 26 -94 60 0 8 -4 14 -9 14 -5 0 -13 -24 -16 -54 -5 -40 -3 -61
9 -84 23 -44 20 -65 -16 -124 -29 -47 -33 -60 -32 -125 0 -40 -3 -73 -8 -73
-4 0 -8 4 -8 10 0 5 -6 7 -13 4 -17 -6 -49 61 -51 106 -1 19 9 55 21 80 28 56
29 84 2 109 -28 26 -32 94 -6 99 12 2 17 -3 18 -20 1 -19 2 -20 6 -4 7 25 23
42 51 50 12 4 22 16 22 26 0 13 6 18 20 15 11 -2 22 0 25 6 4 5 1 9 -4 9 -6 0
-11 9 -11 20 0 11 4 20 9 20 5 0 11 -9 14 -20 5 -18 14 -20 95 -20 81 0 91 2
106 23 l17 22 -4 -27 c-3 -19 0 -25 10 -21 7 3 13 0 13 -6 0 -6 4 -11 9 -11 5
0 8 8 6 18 -2 9 -4 25 -4 35 -1 10 -5 15 -11 12 -5 -3 -10 1 -10 10 0 9 4 14
9 11 4 -3 4 17 -1 45 -5 28 -7 58 -4 66 3 8 -1 25 -10 38 -9 14 -13 33 -9 44
8 26 -14 29 -213 34 -124 2 -155 6 -169 19 -21 21 -10 48 19 48 21 0 20 2 -9
20 -53 32 -40 64 22 55 17 -3 109 -5 205 -6z m1528 -13 c6 -30 -16 -36 -141
-36 -96 0 -119 3 -123 15 -4 8 -1 22 6 30 11 13 36 15 134 13 109 -3 121 -5
124 -22z m685 8 c10 -3 17 -15 17 -30 0 -23 -3 -24 -67 -25 l-68 -1 63 -12
c42 -7 67 -17 73 -29 20 -34 1 -40 -105 -33 -156 11 -177 13 -188 24 -17 17
28 52 70 53 l37 1 -38 8 c-46 9 -51 13 -42 40 7 21 10 22 119 15 61 -3 119 -9
129 -11z m1445 -21 c2 -19 -1 -33 -7 -33 -6 0 -11 -13 -11 -29 0 -33 -14 -41
-70 -41 -65 0 -100 11 -100 31 0 23 15 32 70 40 l45 6 -40 2 c-56 2 -70 13
-55 40 10 20 18 22 88 19 l77 -3 3 -32z m-347 8 c22 -18 22 -20 7 -26 -25 -10
-22 -23 5 -27 33 -5 31 -50 -3 -59 -22 -6 -23 -7 -4 -8 29 -1 44 -21 43 -57 0
-16 2 -60 6 -97 4 -55 1 -77 -14 -113 -11 -24 -24 -44 -30 -44 -5 0 -17 -8
-27 -17 -14 -14 -34 -18 -91 -18 -41 1 -77 5 -81 10 -9 13 -31 19 -65 17 -15
-1 -40 4 -55 10 -53 21 -102 26 -110 12 -7 -12 -11 -12 -27 0 -18 13 -18 15
-3 39 16 23 24 25 135 32 208 12 263 31 240 82 -8 18 -8 29 1 44 10 16 10 21
-3 25 -8 4 -15 18 -15 34 0 22 6 30 23 33 12 3 -63 3 -168 0 -178 -5 -191 -4
-214 14 -29 23 -21 43 17 44 20 1 17 3 -15 11 -36 8 -43 13 -43 34 0 16 6 24
18 25 60 4 310 16 373 17 63 2 81 -2 100 -17z m-2867 -7 c22 -22 20 -40 -6
-49 l-23 -8 21 -4 c21 -4 38 -38 28 -55 -3 -4 -24 -9 -47 -9 l-42 -1 35 -7
c55 -11 63 -19 57 -57 -3 -19 -1 -36 5 -40 5 -4 7 -21 3 -40 -5 -30 -3 -34 19
-40 25 -6 242 13 258 22 5 3 31 3 58 -1 34 -5 49 -12 53 -25 9 -34 -7 -39
-123 -42 l-115 -3 93 -9 c80 -7 92 -11 80 -23 -11 -10 -52 -15 -156 -17 -78
-2 -142 -1 -142 3 0 4 -9 7 -20 8 -11 1 -18 -2 -15 -8 4 -5 -5 -5 -21 1 -15 6
-28 9 -29 8 -1 -2 -8 -13 -14 -25 -17 -33 -31 -28 -31 10 0 18 -4 37 -10 43
-5 5 -11 44 -13 86 -1 43 -6 80 -10 84 -16 16 -7 53 16 60 l22 8 -25 6 c-28 7
-40 47 -18 62 10 7 10 10 -4 19 -18 10 -24 40 -11 52 13 14 111 7 127 -9z
m1951 0 c21 -22 14 -38 -18 -42 -35 -4 -35 -20 1 -24 21 -2 28 -9 30 -32 l4
-28 -66 4 c-73 4 -97 18 -80 46 6 9 22 19 35 22 22 6 22 7 -8 13 -27 5 -33 11
-33 32 0 24 3 25 59 25 42 0 64 -5 76 -16z m-865 -54 c24 -37 15 -40 -145 -40
l-154 0 8 22 c11 31 39 37 169 35 88 -2 115 -5 122 -17z m-375 -22 c15 -22 14
-23 -7 -30 -13 -3 -78 -6 -146 -7 -100 -1 -124 2 -128 14 -16 40 0 45 135 45
123 0 131 -1 146 -22z m-1288 -48 c27 0 34 -5 39 -26 4 -14 2 -30 -4 -36 -7
-7 -6 -18 4 -36 9 -17 10 -31 3 -43 -5 -10 -7 -30 -3 -43 4 -19 0 -28 -20 -41
-14 -10 -26 -23 -26 -29 0 -11 -70 -81 -74 -74 -1 2 -7 14 -14 28 l-11 25 5
-27 c5 -23 3 -28 -13 -28 -10 0 -25 -6 -31 -12 -10 -10 -15 -10 -21 1 -6 8
-16 11 -31 6 -13 -4 -20 -3 -17 2 7 10 -129 76 -195 94 -24 6 -38 14 -32 16 6
2 49 -7 95 -21 46 -13 110 -27 142 -31 54 -7 59 -6 85 20 l27 28 3 -33 3 -33
20 32 c23 38 23 41 5 41 -19 0 -26 47 -9 62 12 10 12 13 -1 20 -19 11 -21 49
-4 66 9 9 9 12 0 12 -6 0 -16 9 -22 19 -13 26 14 55 44 47 12 -3 36 -6 53 -6z
m4895 -36 c0 -8 1 -20 2 -26 1 -8 -17 -15 -44 -19 -44 -6 -44 -6 -8 -7 41 -2
65 -30 52 -60 -3 -9 -6 -33 -5 -53 4 -61 -16 -114 -59 -155 -21 -21 -41 -47
-43 -59 -2 -11 -5 -4 -6 15 0 20 -8 45 -16 57 -12 17 -15 46 -13 120 1 54 6
106 11 116 5 12 4 23 -3 32 -18 22 -3 53 28 57 49 6 102 -4 104 -18z m-3901
-70 c13 -12 18 -11 31 3 25 24 110 29 132 8 32 -32 16 -50 -46 -53 -32 -2 -67
2 -79 8 -15 9 -24 9 -32 1 -15 -15 -120 -14 -135 1 -18 18 -15 46 6 51 28 8
106 -4 123 -19z m-57 -199 c-4 -8 -10 -15 -14 -15 -5 0 -14 -16 -21 -35 -9
-24 -20 -35 -34 -36 -11 -1 -45 -3 -75 -5 -56 -4 -225 -5 -270 -1 -18 1 -26 9
-28 25 -2 12 2 22 8 22 6 0 20 9 31 19 14 13 31 18 53 15 156 -19 201 -21 199
-6 -2 6 2 12 7 12 6 0 10 -5 10 -10 0 -19 84 -8 98 12 16 22 44 24 36 3z
m3565 -111 c-6 -17 -6 -23 1 -19 6 3 10 13 10 21 0 8 5 14 10 14 28 0 -16 -78
-48 -84 -97 -21 -182 -16 -182 9 0 7 -9 15 -20 18 -24 6 -27 27 -4 27 10 0 14
6 11 15 -4 8 -2 17 4 20 5 4 12 -1 16 -11 9 -25 151 -13 173 15 21 27 42 9 29
-25z m172 -34 c6 0 7 -5 4 -10 -4 -6 -9 -8 -13 -6 -4 2 -15 -2 -25 -9 -15 -11
-16 -17 -8 -34 16 -28 14 -33 -9 -21 -25 13 -26 7 -2 -16 9 -10 18 -27 19 -38
1 -12 4 -45 7 -74 5 -38 3 -52 -4 -47 -7 4 -14 -2 -17 -14 -3 -12 -7 -21 -10
-21 -7 0 -39 35 -56 62 -17 27 -24 118 -9 118 14 0 11 62 -3 77 -8 8 -15 23
-15 32 0 15 10 19 51 23 36 4 55 11 63 24 10 17 11 15 14 -13 2 -18 8 -33 13
-33z m-669 26 c-3 -18 14 -22 20 -4 6 18 59 0 65 -22 6 -23 14 -25 31 -8 9 9
12 7 12 -10 0 -29 24 -28 38 2 7 15 21 25 41 28 34 5 42 -11 15 -33 -9 -7 -13
-21 -10 -33 3 -11 0 -26 -6 -33 -7 -9 -7 -13 0 -13 6 0 10 -12 10 -27 0 -16 9
-50 21 -77 12 -27 23 -56 25 -65 2 -9 8 -29 14 -44 7 -15 15 -40 18 -55 4 -15
11 -33 17 -39 5 -7 6 -13 3 -13 -4 0 -4 -6 1 -12 4 -7 6 -21 5 -30 -2 -10 2
-18 9 -18 15 0 4 -56 -15 -76 -10 -10 -21 -11 -38 -5 -13 4 -21 12 -18 16 6
10 -27 32 -35 23 -5 -5 -9 -31 -14 -96 -1 -14 -16 -5 -53 35 -25 26 -50 92
-41 106 3 6 2 7 -4 4 -5 -3 -17 25 -27 64 -10 38 -22 69 -27 69 -5 0 -6 7 -3
15 4 8 1 15 -6 15 -7 0 -10 7 -6 15 3 8 2 15 -3 15 -8 0 -20 39 -35 109 -3 14
-1 30 3 35 20 27 21 66 2 82 -11 10 -17 23 -14 30 3 8 0 28 -6 45 -8 23 -8 30
2 26 6 -2 11 -11 9 -21z m-3417 -55 c33 -1 76 -4 95 -7 19 -2 60 -4 92 -4 31
1 59 -3 62 -8 7 -11 46 -4 46 8 0 4 7 10 14 13 10 4 21 -7 32 -34 18 -39 28
-47 37 -29 3 6 4 5 3 -2 -2 -7 3 -32 9 -55 7 -24 9 -43 4 -43 -5 0 -9 -4 -9
-10 0 -5 7 -10 15 -10 8 0 15 -8 15 -17 1 -17 22 -82 48 -146 14 -34 16 -84 3
-91 -11 -7 -23 22 -15 35 3 5 0 9 -6 9 -6 0 -8 5 -5 10 3 6 -1 17 -10 26 -9 9
-14 21 -12 27 2 6 -3 19 -11 28 -8 10 -17 32 -19 50 -2 18 -7 37 -12 43 -9 10
-22 73 -24 106 0 8 -3 17 -6 20 -4 3 -12 16 -18 30 -11 23 -12 22 -12 -22 -1
-26 3 -49 8 -52 5 -3 12 -31 16 -61 3 -30 11 -55 16 -55 6 0 7 -9 4 -20 -3
-11 -2 -20 2 -20 5 0 17 -25 28 -55 10 -30 22 -55 28 -55 5 0 7 -7 3 -15 -3
-8 -1 -15 5 -15 7 0 9 -10 5 -24 -3 -13 -2 -26 3 -28 5 -2 11 -45 15 -96 5
-79 3 -97 -13 -127 -15 -28 -20 -32 -25 -19 -4 11 -14 15 -31 12 -14 -3 -25
-2 -25 3 0 4 -9 11 -20 14 -11 3 -20 13 -20 20 0 9 -6 12 -15 9 -8 -4 -15 -1
-15 5 0 6 -6 11 -14 11 -8 0 -17 6 -19 13 -4 9 -8 9 -15 -2 -7 -10 -22 -12
-51 -8 -23 3 -39 1 -35 -4 3 -5 -2 -6 -10 -3 -11 4 -16 0 -16 -12 -1 -18 -1
-18 -14 -2 -7 10 -15 15 -18 12 -3 -3 -17 6 -31 20 -15 14 -23 26 -20 26 4 0
-3 10 -14 23 -64 71 -123 267 -80 267 8 0 9 3 1 8 -18 11 -34 49 -29 65 3 7 1
25 -4 40 -8 21 -6 32 15 62 13 20 21 41 18 47 -5 7 -2 8 6 3 8 -5 11 -3 8 6
-3 8 2 19 11 26 10 8 11 12 4 13 -7 0 -10 7 -7 18 4 13 4 14 -4 4 -8 -11 -13
-12 -30 -1 -11 7 -23 22 -26 32 -4 17 -3 17 12 5 10 -9 43 -16 77 -17z m555 8
c0 -6 -8 -24 -17 -39 -15 -26 -15 -39 -5 -116 6 -48 16 -92 21 -97 5 -5 7 -16
4 -23 -3 -8 0 -14 5 -14 6 0 14 -16 18 -35 3 -19 9 -35 13 -35 3 0 7 -17 9
-37 1 -20 7 -40 13 -43 6 -4 7 -18 3 -33 -4 -18 -2 -27 6 -27 9 0 11 -11 7
-35 -3 -20 -2 -33 2 -30 5 2 12 -28 15 -68 4 -39 11 -89 17 -109 10 -40 0
-104 -29 -175 -15 -37 -20 -41 -42 -36 -37 9 -40 12 -40 40 0 36 -6 26 -13
-22 -4 -27 -3 -35 3 -25 8 13 10 13 10 -1 0 -20 27 -32 36 -17 5 7 2 8 -7 3
-11 -6 -12 -5 -1 6 9 10 15 10 24 1 9 -9 8 -16 -5 -30 -17 -19 -25 -47 -26
-94 -1 -16 -7 -28 -14 -28 -7 0 -13 -9 -13 -20 0 -11 5 -20 11 -20 5 0 10 -11
10 -25 0 -19 -5 -25 -20 -24 -11 0 -14 3 -7 6 6 2 12 12 12 20 0 9 -6 13 -14
10 -15 -6 -31 18 -27 41 1 8 -3 19 -9 27 -11 14 -7 95 6 116 4 7 9 22 10 33 1
12 9 48 17 80 9 34 14 87 12 120 -7 114 -17 221 -22 229 -3 5 -6 29 -8 53 -2
24 -7 50 -12 57 -5 6 -18 40 -28 75 -10 34 -22 62 -27 62 -5 0 -7 8 -4 18 3 9
-1 31 -10 47 -8 17 -18 61 -21 98 -3 37 -9 70 -14 72 -13 8 3 45 19 45 8 0 12
-3 9 -7 -4 -3 5 -12 20 -20 14 -7 29 -10 32 -6 8 11 54 42 64 42 4 1 7 -4 7
-10z m1159 -76 c-1 -27 -4 -38 -6 -25 -5 27 -20 29 -28 2 -5 -14 6 -40 34 -84
22 -35 38 -66 35 -69 -3 -3 -1 -21 5 -41 9 -35 6 -50 -23 -94 -12 -20 -44 13
-52 54 -3 19 -11 34 -16 34 -5 0 -6 9 -3 20 4 12 2 20 -5 20 -7 0 -9 8 -5 21
4 12 3 24 -3 28 -5 3 -13 25 -17 48 -5 35 -3 45 15 63 13 13 20 30 17 40 -3
12 1 21 12 23 38 11 41 8 40 -40z m1115 -59 c11 -29 7 -46 -10 -40 -18 7 -18
9 6 -109 6 -33 16 -66 22 -72 6 -7 12 -25 13 -40 3 -30 6 -41 42 -122 20 -47
21 -52 5 -47 -16 6 -16 5 1 -8 19 -15 23 -40 5 -31 -7 4 -5 0 4 -8 11 -8 20
-35 23 -68 5 -39 3 -50 -4 -39 -6 8 -11 10 -11 4 0 -5 5 -15 12 -22 8 -8 8
-15 -1 -26 -7 -8 -10 -20 -6 -26 3 -5 1 -10 -5 -10 -7 0 -10 -6 -8 -12 3 -7
-4 -21 -14 -32 -22 -24 -24 -40 -3 -32 8 3 15 1 15 -4 0 -6 -9 -10 -20 -10
-13 0 -20 7 -20 20 0 11 -4 20 -10 20 -5 0 -10 14 -10 31 0 17 -4 28 -10 24
-9 -5 -15 15 -11 37 1 12 -63 26 -74 17 -5 -5 -15 -9 -23 -9 -7 0 -29 -16 -48
-35 -36 -38 -54 -44 -54 -19 0 14 -2 14 -15 0 -8 -8 -15 -21 -15 -28 0 -8 -6
-20 -12 -28 -11 -12 -10 -12 5 -1 9 7 17 20 17 27 0 8 5 14 10 14 17 0 11 -28
-12 -65 -13 -19 -31 -35 -40 -35 -9 0 -20 -4 -23 -10 -3 -5 -2 -10 4 -10 6 0
7 -8 4 -17 -5 -14 -8 -14 -11 -2 -3 7 -10 17 -16 21 -8 6 -8 8 0 8 7 0 10 22
7 65 -3 43 -1 65 6 65 6 0 12 -17 12 -37 1 -23 3 -29 6 -16 3 15 9 20 21 16
13 -4 11 0 -5 16 -14 13 -20 28 -17 39 5 13 4 14 -4 3 -12 -16 -18 -6 -20 37
-2 21 1 31 8 27 13 -8 13 -5 -1 34 -6 17 -15 31 -21 31 -6 0 -8 7 -4 15 3 8 0
15 -5 15 -6 0 -9 9 -6 20 3 11 1 20 -3 20 -5 0 -11 14 -15 30 -4 17 -11 30
-17 30 -6 0 -7 7 -4 16 4 9 2 13 -5 8 -9 -5 -10 4 -5 32 5 28 4 35 -3 24 -8
-11 -11 -6 -11 23 0 20 4 37 9 37 5 0 11 9 14 20 3 11 1 18 -4 14 -5 -3 -9 0
-9 5 0 6 6 11 13 11 8 0 8 3 -2 9 -10 7 -15 30 -15 80 -1 41 -4 64 -9 55 -11
-20 -28 -17 -59 11 -31 27 -40 58 -10 34 19 -16 40 -18 60 -5 7 4 19 3 27 -4
8 -6 20 -8 26 -4 8 4 9 3 5 -5 -6 -9 12 -11 68 -10 48 1 76 6 76 13 0 7 3 7 8
1 4 -6 34 -12 67 -14 33 -1 67 -8 75 -14 11 -9 11 -6 -2 14 -12 20 -14 29 -5
38 16 16 44 14 51 -5z"/>
<path d="M2984 3913 c5 -28 9 -97 7 -141 -1 -13 -22 -44 -48 -72 -66 -67 -69
-72 -65 -95 4 -16 2 -17 -10 -8 -11 10 -14 8 -14 -7 0 -15 4 -16 18 -9 10 5
18 16 18 23 0 7 12 26 26 41 24 26 27 27 36 11 9 -17 -6 -43 -80 -136 -26 -33
-12 -52 19 -24 19 17 20 17 38 -2 11 -10 22 -30 26 -44 7 -22 6 -23 -9 -11 -9
8 -18 12 -20 10 -5 -5 27 -99 49 -146 8 -17 15 -37 15 -45 0 -8 5 -19 12 -26
7 -7 8 -12 4 -12 -5 0 -3 -7 4 -15 10 -12 10 -15 0 -15 -9 0 -11 -11 -7 -35 6
-37 0 -43 -22 -22 -11 10 -13 9 -9 -3 3 -8 15 -16 27 -18 21 -3 22 -1 15 34
-5 27 -4 35 5 30 6 -4 9 -12 6 -17 -4 -5 -1 -9 4 -9 6 0 11 -12 11 -26 0 -14
5 -34 10 -45 13 -24 28 -249 17 -256 -5 -3 -8 -17 -7 -31 3 -43 1 -51 -20 -72
-15 -15 -18 -25 -10 -44 6 -16 5 -26 -1 -28 -6 -2 -12 -15 -12 -30 -1 -14 -5
-24 -8 -22 -16 9 -36 -34 -38 -80 -1 -12 -6 -16 -17 -12 -15 6 -15 4 -1 -17
14 -22 14 -25 -5 -42 -15 -12 -17 -19 -9 -24 6 -4 9 -15 6 -23 -4 -9 -1 -19 6
-24 9 -5 10 -2 6 9 -3 10 -2 17 3 17 12 0 13 -20 1 -39 -5 -8 -3 -24 5 -40 7
-15 16 -55 19 -90 5 -56 3 -62 -11 -57 -12 4 -15 2 -10 -9 3 -8 1 -15 -4 -15
-5 0 -11 -8 -13 -17 -3 -13 -5 -12 -6 5 0 13 3 32 9 42 7 13 6 22 -3 32 -7 7
-12 27 -11 43 0 17 -3 33 -8 36 -5 3 -4 18 3 32 7 15 9 30 4 35 -4 4 -10 1
-12 -5 -8 -23 -25 -14 -21 10 2 13 -1 28 -8 35 -14 13 -8 45 7 36 5 -3 9 0 9
5 0 6 -7 11 -15 11 -10 0 -15 11 -15 35 0 27 3 33 15 29 13 -5 14 -2 5 20 -6
17 -6 26 0 26 6 0 9 3 9 8 -1 4 0 9 1 12 6 16 5 50 -1 50 -4 0 -3 14 3 30 7
23 7 34 -2 45 -9 11 -9 15 -1 15 8 0 7 10 -3 33 -10 24 -11 39 -4 52 7 12 7
16 1 12 -6 -4 -18 15 -28 41 -9 26 -25 65 -35 87 -16 34 -17 42 -4 51 8 6 14
15 14 19 0 4 -7 2 -15 -5 -18 -15 -25 -1 -28 53 -1 19 -5 33 -9 31 -11 -7 -29
33 -22 50 3 9 2 16 -4 16 -6 0 -16 23 -23 50 -7 28 -17 50 -22 50 -5 0 -7 7
-3 15 3 8 1 15 -5 15 -6 0 -8 9 -4 21 5 14 3 19 -3 15 -10 -6 -18 28 -26 107
-1 15 -6 30 -9 34 -4 3 0 15 10 25 9 10 11 18 5 18 -6 0 -14 -4 -17 -10 -16
-26 -23 -5 -10 31 32 90 7 146 -34 78 -18 -29 -20 -30 -31 -12 -8 13 -13 14
-16 6 -10 -23 -24 -14 -24 15 0 16 -7 37 -16 48 -15 18 -15 18 -9 -3 4 -13 2
-23 -3 -23 -5 0 -15 -13 -22 -29 -8 -21 -17 -27 -30 -24 -15 4 -18 0 -16 -21
2 -14 -1 -26 -7 -26 -6 0 -5 -5 1 -13 6 -7 9 -25 8 -40 -3 -20 1 -27 14 -27
14 0 22 -16 35 -70 9 -38 21 -70 27 -70 5 0 6 -9 3 -20 -4 -12 -2 -20 5 -20 7
0 10 -8 7 -20 -3 -11 0 -20 5 -20 6 0 8 -13 4 -32 -4 -22 -3 -28 3 -19 6 10
11 -3 16 -43 4 -31 11 -59 17 -62 5 -3 6 -14 3 -24 -3 -10 -2 -21 4 -24 5 -3
7 -15 4 -26 -3 -12 1 -26 9 -33 8 -7 20 -30 27 -52 7 -22 21 -58 31 -80 33
-71 44 -155 31 -231 -14 -79 -27 -108 -44 -97 -9 5 -9 3 0 -8 6 -8 11 -42 12
-76 0 -34 7 -85 15 -113 13 -45 13 -52 1 -57 -8 -3 -15 -13 -14 -22 0 -10 2
-11 6 -3 9 22 25 12 21 -13 -3 -13 -1 -22 3 -19 5 3 10 -10 10 -28 1 -18 3
-44 5 -58 7 -54 7 -267 0 -305 -4 -22 -8 -46 -8 -52 -1 -7 -6 -13 -11 -13 -5
0 -7 -6 -4 -14 3 -7 -1 -23 -9 -35 -8 -12 -12 -26 -9 -31 3 -6 2 -10 -3 -10
-10 0 -36 -58 -33 -74 1 -5 -5 -16 -13 -25 -23 -26 -49 -138 -48 -211 1 -109
13 -233 27 -273 7 -21 10 -48 7 -60 -3 -12 -1 -19 3 -15 9 8 35 -36 35 -58 0
-8 5 -14 10 -14 6 0 10 -12 10 -27 0 -14 3 -23 7 -19 7 6 31 -62 37 -104 1 -9
5 -21 10 -28 4 -6 4 -16 1 -22 -3 -5 1 -10 11 -10 13 0 14 -3 4 -15 -10 -12
-10 -15 3 -15 12 0 37 -42 41 -72 1 -3 4 -10 9 -14 4 -4 7 -20 7 -35 0 -15 6
-30 13 -32 10 -4 10 -6 0 -6 -19 -1 -15 -29 5 -34 16 -4 16 -5 0 -6 -18 -1
-26 -21 -9 -21 5 0 11 -7 15 -15 8 -23 -26 -37 -58 -22 -32 15 -32 20 -1 37
14 7 25 17 25 22 0 12 -14 10 -28 -4 -9 -9 -12 -9 -12 0 0 7 5 12 10 12 6 0
10 5 10 10 0 6 -6 10 -14 10 -7 0 -16 9 -19 21 -5 17 -3 18 9 8 24 -20 27 -2
4 21 -11 11 -18 25 -15 30 3 4 0 10 -5 12 -6 2 -12 17 -14 33 -2 17 -9 30 -16
30 -20 0 -36 55 -20 65 9 6 6 9 -10 12 -13 1 -25 9 -28 17 -3 9 0 11 7 6 14
-8 -8 35 -23 46 -5 4 -5 12 -2 18 4 6 0 14 -8 17 -9 3 -16 12 -16 20 0 8 -4
14 -10 14 -5 0 -12 11 -16 25 -3 14 -14 31 -23 38 -16 11 -33 40 -36 62 -3 18
-18 50 -27 56 -14 9 -24 125 -23 269 1 112 5 149 25 215 13 44 27 85 33 92 5
7 6 17 2 23 -3 5 -1 10 4 10 6 0 11 7 11 15 0 8 5 15 10 15 6 0 10 8 10 18 0
10 4 22 9 28 4 5 16 37 25 71 13 48 15 81 9 150 -9 110 -9 140 0 178 5 19 4
23 -1 11 -8 -18 -9 -18 -15 -2 -4 10 -7 29 -7 42 0 14 -7 41 -15 61 -14 33
-21 69 -30 150 -2 18 4 58 12 90 9 32 17 65 18 73 6 43 18 71 25 60 13 -20 -1
82 -16 117 -9 23 -10 35 -2 39 7 5 5 12 -7 20 -10 8 -15 20 -11 29 3 9 2 14
-3 11 -4 -3 -16 31 -26 74 -10 44 -22 80 -27 80 -5 0 -6 9 -3 20 4 12 2 20 -5
20 -7 0 -10 8 -7 20 3 11 1 20 -3 20 -5 0 -12 20 -16 45 -3 25 -10 47 -14 50
-5 3 -6 14 -3 25 3 12 0 20 -7 20 -8 0 -10 9 -6 26 4 14 2 31 -3 38 -5 6 -9
38 -8 70 2 31 -1 60 -5 62 -4 3 -8 11 -8 17 0 7 4 6 10 -3 6 -9 10 -10 10 -3
0 6 -5 15 -10 18 -6 4 -9 22 -5 43 3 20 2 33 -1 29 -4 -4 -9 -28 -10 -53 -2
-25 -8 -52 -15 -60 -8 -10 -8 -18 -1 -26 5 -7 13 -38 16 -68 10 -95 16 -134
26 -164 5 -15 7 -32 4 -37 -3 -5 0 -9 7 -9 6 0 9 -8 6 -20 -3 -10 -1 -20 3
-22 5 -2 11 -14 14 -28 3 -14 8 -38 11 -55 3 -16 12 -36 18 -44 9 -12 9 -13 0
-7 -15 9 -16 2 -4 -22 16 -29 24 -56 28 -86 2 -17 7 -33 13 -36 5 -3 9 -14 8
-25 -1 -11 2 -35 6 -52 5 -23 4 -33 -4 -33 -9 0 -10 -10 -6 -31 3 -18 1 -38
-5 -45 -5 -7 -11 -24 -13 -37 -1 -14 -10 -33 -20 -42 -12 -13 -15 -26 -10 -47
4 -21 3 -28 -5 -24 -6 4 -11 2 -11 -3 0 -6 4 -11 9 -11 15 0 21 -43 11 -85 -8
-35 -6 -43 15 -66 14 -14 25 -32 25 -40 0 -12 -2 -12 -10 1 -15 25 -20 6 -7
-30 7 -19 16 -40 20 -47 8 -12 -1 -121 -11 -137 -3 -5 3 -6 13 -2 17 6 17 0
12 -86 -5 -102 -12 -128 -33 -128 -8 0 -11 -6 -7 -16 7 -18 -26 -96 -38 -88
-5 3 -6 -2 -3 -10 7 -17 -26 -77 -38 -70 -14 9 -28 -46 -22 -88 7 -39 6 -40
-17 -33 -21 7 -22 6 -10 -9 12 -14 11 -16 -3 -16 -11 0 -16 -9 -15 -27 l0 -28
11 25 c10 21 12 22 15 7 3 -10 0 -31 -6 -45 -6 -15 -10 -68 -8 -119 2 -51 0
-93 -5 -93 -8 0 -12 34 -10 94 0 19 -3 25 -8 16 -4 -7 -6 -32 -4 -54 3 -23 5
-58 4 -80 0 -29 3 -37 14 -33 21 8 44 -91 25 -105 -11 -8 -10 -9 3 -4 13 4 20
-4 29 -31 6 -20 21 -52 32 -70 11 -19 17 -37 13 -40 -9 -9 36 -83 46 -77 10 6
37 -24 38 -41 0 -5 -5 -3 -11 5 -8 13 -10 12 -7 -3 2 -10 6 -17 11 -15 8 3 37
-47 37 -64 0 -5 -5 -6 -11 -2 -7 4 -10 1 -7 -7 3 -8 15 -13 29 -11 13 2 21 1
17 -3 -4 -4 -1 -19 6 -34 17 -33 30 -103 16 -81 -8 12 -10 9 -10 -14 0 -25 2
-27 17 -15 15 12 16 12 10 -3 -3 -10 -3 -18 2 -18 9 0 13 -99 4 -113 -3 -5 -9
-3 -14 4 -7 11 -9 10 -9 -3 0 -9 4 -19 9 -22 12 -8 1 -57 -15 -63 -9 -3 -12
-14 -8 -28 8 -31 -15 -113 -26 -95 -5 8 -12 11 -15 8 -10 -10 4 -28 22 -28 11
0 14 -6 9 -25 -9 -35 16 -60 43 -45 25 13 68 13 76 0 9 -15 38 -12 32 3 -3 7
6 23 19 36 13 13 24 29 24 37 0 17 42 84 53 84 12 0 8 -17 -8 -30 -16 -13 -20
-30 -7 -30 4 0 16 14 26 31 13 23 15 33 7 38 -6 4 -9 15 -5 25 5 14 9 15 16 4
7 -9 8 -5 4 12 -3 14 0 32 5 40 9 12 10 10 6 -7 -3 -13 -1 -23 4 -23 10 0 10
-3 13 73 1 31 7 62 13 68 17 17 24 -5 12 -39 -6 -17 -9 -39 -6 -49 3 -13 6 -9
13 14 7 25 12 30 24 23 9 -6 10 -10 3 -10 -8 0 -10 -12 -6 -35 4 -25 2 -35 -7
-35 -7 0 -10 -3 -7 -6 3 -4 2 -15 -4 -25 -6 -13 -6 -19 0 -19 19 0 33 43 35
100 1 41 4 56 14 53 6 -3 12 0 12 5 0 15 -22 27 -42 24 -12 -2 -18 3 -18 17 0
26 18 27 36 4 18 -26 27 -10 12 23 -7 16 -15 31 -18 34 -5 5 -6 9 -8 53 -1 13
-11 33 -22 45 -24 25 -25 32 -5 32 15 0 58 -73 49 -83 -3 -3 2 -19 11 -36 8
-17 16 -47 17 -66 1 -19 6 -35 12 -35 6 0 5 -5 -2 -12 -7 -7 -12 -23 -12 -38
0 -30 -61 -200 -72 -200 -5 0 -8 5 -8 11 0 5 -5 7 -10 4 -6 -4 0 -15 15 -27
17 -13 25 -28 23 -42 -5 -32 33 -57 82 -54 46 2 39 20 -9 22 -40 1 -40 16 -1
16 18 0 33 6 36 15 8 19 28 19 44 0 10 -13 9 -15 -10 -15 -22 0 -22 -1 -7 -18
21 -23 21 -32 2 -32 -8 0 -15 -5 -15 -11 0 -7 -12 -10 -30 -7 -20 3 -30 0 -30
-9 0 -8 13 -13 35 -13 19 0 35 -5 35 -11 0 -6 -8 -8 -17 -5 -10 3 -25 1 -33
-4 -12 -8 -11 -10 7 -10 12 0 25 -5 28 -10 10 -16 74 -8 92 12 19 21 55 25 47
5 -3 -8 2 -14 10 -14 8 0 12 6 9 14 -3 7 -1 13 3 14 5 0 33 2 62 4 48 4 62 -2
45 -18 -3 -4 -12 -2 -18 3 -9 7 -14 6 -18 -4 -4 -9 0 -15 11 -15 9 0 36 -3 60
-7 29 -4 51 -2 68 6 32 18 30 27 -6 35 -26 6 -30 11 -30 39 0 18 -3 36 -7 40
-4 3 -7 20 -8 36 -1 16 -5 33 -10 37 -4 5 -5 0 -2 -9 4 -10 2 -18 -4 -18 -6 0
-9 -7 -5 -15 6 -17 -24 -51 -33 -37 -3 6 -34 10 -69 9 -34 -1 -62 1 -62 6 0 4
-9 7 -20 7 -12 0 -17 -5 -14 -14 4 -10 -2 -14 -21 -12 -22 1 -25 4 -20 26 4
14 12 28 18 32 9 6 9 8 -1 8 -18 0 -5 49 21 77 11 13 16 23 11 23 -5 0 -4 4 3
8 17 11 28 62 13 62 -6 0 -9 -3 -7 -7 2 -5 -4 -21 -14 -38 -43 -70 -60 -108
-55 -122 4 -10 0 -13 -12 -11 -23 5 -18 48 9 71 12 9 18 17 14 17 -5 0 -1 8 8
18 8 9 16 22 16 27 0 19 35 95 43 95 4 0 8 -9 8 -20 0 -11 5 -20 11 -20 5 0 8
4 5 9 -4 5 -1 22 6 38 6 15 10 33 8 38 -1 6 -3 26 -5 45 -1 19 -5 53 -10 75
-7 32 -9 36 -15 20 -4 -11 -4 -24 0 -30 8 -9 13 -71 11 -122 -2 -48 -20 -20
-20 30 0 87 -1 97 -12 97 -7 0 -9 9 -5 23 3 12 -1 35 -9 50 -15 30 -3 47 15
20 11 -17 11 -17 6 0 -3 10 -6 23 -6 28 0 4 -7 6 -15 3 -10 -4 -15 0 -15 13 0
11 -3 23 -7 27 -4 3 -8 14 -9 24 -4 42 -16 110 -25 142 -5 19 -12 78 -15 130
-7 141 -14 199 -25 206 -5 3 -7 14 -4 25 4 10 3 24 -2 31 -4 7 -9 22 -9 33 -1
11 -6 43 -11 70 -9 50 -5 85 16 180 6 28 13 62 16 77 6 37 23 68 36 65 6 -1
13 9 15 23 3 23 3 23 -10 8 -21 -29 -25 -21 -12 25 14 45 13 155 -2 250 -7 45
-6 60 5 69 12 10 12 13 -1 20 -21 12 -22 52 -1 44 9 -3 15 0 15 9 0 9 -6 12
-17 8 -14 -6 -15 -1 -9 38 4 31 3 39 -4 29 -8 -12 -10 -9 -10 13 0 16 4 26 9
23 5 -3 11 1 15 9 3 8 1 17 -4 20 -6 4 -10 1 -10 -5 0 -6 -4 -8 -10 -5 -5 3
-10 17 -10 31 0 14 4 22 10 19 16 -10 11 4 -9 24 -15 15 -18 31 -16 99 2 46 9
92 18 109 29 57 46 102 64 177 10 42 23 74 28 73 6 -2 16 -17 24 -33 8 -16 21
-34 30 -41 13 -9 19 -7 31 15 17 31 17 32 20 75 l2 32 8 -30 c4 -17 6 10 3 63
-3 71 -1 92 9 92 10 0 10 2 -1 9 -9 6 -11 20 -6 50 6 34 4 41 -9 41 -18 0 -22
25 -4 36 8 5 6 11 -6 20 -11 8 -13 14 -7 19 16 10 13 25 -5 25 -14 0 -14 3 -4
15 10 12 10 15 0 15 -7 0 -10 7 -6 15 3 9 -1 18 -9 21 -8 3 -11 12 -8 21 5 12
3 14 -7 8 -10 -6 -12 -4 -7 8 3 9 1 17 -5 19 -6 2 -10 16 -10 31 0 15 -4 27
-9 27 -4 0 -11 10 -15 22 -3 12 -15 30 -24 41 -18 19 -18 19 -29 -1 -8 -15 -7
-21 2 -25 18 -7 63 -101 58 -121 -1 -5 4 -13 11 -17 10 -7 10 -9 1 -9 -18 0
-16 -29 3 -37 8 -3 13 -12 10 -20 -3 -8 -1 -11 4 -8 6 3 10 -2 10 -12 1 -10 3
-44 6 -75 4 -42 2 -58 -6 -58 -7 0 -10 -7 -6 -16 4 -10 2 -14 -6 -11 -7 2 -12
10 -10 17 2 7 -1 16 -6 19 -4 3 -18 37 -31 75 -17 55 -19 71 -9 78 10 6 8 13
-9 27 -13 11 -23 26 -23 35 0 8 -5 18 -10 21 -6 4 -8 10 -5 15 3 5 1 11 -5 15
-6 4 -8 10 -5 15 3 5 1 11 -4 14 -5 3 -5 20 -2 38 5 22 3 40 -6 54 -10 16 -11
28 -3 50 6 15 10 37 9 48 -1 12 -1 30 0 40 1 19 1 19 14 1 13 -17 14 -16 20
13 5 24 13 32 38 37 22 5 34 3 41 -6 6 -10 8 -5 6 15 -2 17 2 31 10 33 6 3 12
-2 12 -11 0 -18 35 -22 45 -6 3 5 14 14 24 19 15 9 17 6 13 -20 -3 -17 0 -29
7 -29 6 0 11 8 12 18 0 9 2 28 5 42 2 14 6 49 8 77 3 29 7 57 10 62 4 5 1 13
-5 16 -5 4 -9 23 -7 44 3 32 1 36 -21 36 -19 0 -24 -6 -27 -30 -2 -16 -7 -39
-13 -50 -5 -11 -18 -40 -30 -65 -25 -54 -71 -107 -105 -120 -16 -6 -26 -17
-26 -30 0 -43 -18 -17 -25 37 -4 31 -10 51 -14 44 -5 -7 -13 13 -20 46 -7 32
-22 74 -32 93 -10 19 -23 47 -29 63 -6 18 -17 27 -31 27 -17 0 -20 -4 -15 -27z
m-373 -403 c25 8 29 6 29 -13 -1 -12 1 -33 2 -47 2 -16 -2 -24 -10 -22 -8 1
-11 -2 -7 -7 3 -6 13 -7 22 -4 13 5 15 1 11 -20 -3 -15 0 -31 7 -37 12 -10 31
-75 27 -92 -1 -3 5 -11 13 -18 7 -6 12 -17 9 -25 -3 -7 -1 -16 5 -19 6 -4 8
-13 5 -20 -3 -8 0 -17 5 -21 6 -3 9 -10 6 -14 -8 -14 25 -111 37 -111 9 0 9
-3 0 -12 -17 -17 -15 -28 6 -28 15 0 15 -2 2 -10 -13 -9 -13 -12 0 -23 8 -6
14 -22 12 -34 -2 -13 1 -23 6 -23 6 0 8 -9 5 -20 -3 -11 0 -20 6 -20 5 0 8 -7
5 -15 -4 -8 -1 -15 6 -15 7 0 10 -7 6 -15 -3 -9 0 -15 9 -15 11 0 12 -5 5 -26
-10 -26 -13 -71 -3 -46 11 27 18 9 16 -40 -3 -76 -13 -125 -23 -108 -9 14 -17
-19 -19 -79 -2 -41 -9 -51 -21 -31 -7 11 -10 4 -10 -23 0 -23 4 -36 10 -32 6
4 8 11 5 16 -4 5 -2 9 3 9 5 0 12 -11 14 -25 3 -14 1 -25 -3 -25 -5 0 -9 -5
-9 -11 0 -5 5 -7 12 -3 8 5 9 -2 5 -23 -3 -17 -2 -43 4 -59 9 -28 9 -28 4 6
-4 30 -3 32 7 15 7 -11 12 -47 11 -80 -1 -35 2 -52 6 -41 7 19 8 19 14 1 4
-10 10 -50 12 -89 4 -63 3 -69 -9 -52 -14 17 -15 16 -14 -13 1 -17 5 -31 10
-31 5 0 6 5 3 10 -3 6 -1 10 4 10 6 0 11 -2 11 -4 0 -2 3 -12 6 -21 5 -12 2
-16 -9 -13 -9 2 -16 0 -16 -4 -3 -27 0 -38 10 -38 6 0 9 7 5 15 -3 8 -2 15 3
15 5 0 11 -11 13 -24 7 -34 8 -164 2 -146 -3 8 -8 22 -11 30 -4 8 -6 18 -5 22
1 4 -5 5 -13 2 -19 -8 -19 -9 1 -29 15 -15 15 -18 2 -31 -9 -9 -13 -26 -10
-40 6 -32 21 -31 17 1 -1 15 3 25 10 25 11 0 10 -13 -1 -62 -8 -35 -19 -67
-24 -72 -6 -6 -10 -20 -10 -33 0 -13 -4 -23 -10 -23 -14 0 -13 15 5 57 19 45
19 64 1 37 -19 -27 -30 -90 -18 -98 6 -3 -1 -36 -17 -83 -27 -79 -36 -195 -17
-235 6 -13 4 -18 -6 -18 -17 0 -18 2 -21 108 -2 46 0 85 5 88 4 3 8 16 8 29 0
13 5 27 10 30 16 10 12 35 -4 29 -13 -5 -33 -58 -28 -76 1 -5 -7 -8 -19 -8
-11 0 -17 4 -14 10 3 6 -1 7 -9 4 -19 -7 -21 -20 -3 -28 10 -5 10 -7 0 -12
-22 -10 -15 -36 7 -29 26 8 25 4 -5 -29 -27 -29 -33 -72 -12 -79 9 -3 9 -7 0
-18 -16 -20 14 -86 31 -68 8 8 8 13 -1 16 -15 5 -18 43 -4 43 5 0 7 10 5 23
-2 12 -1 16 2 7 4 -8 13 -21 21 -28 16 -17 17 -39 1 -44 -9 -3 -8 -9 5 -22 16
-16 21 -35 18 -63 -1 -7 3 -13 10 -13 7 0 9 11 5 32 -11 56 -11 71 -1 75 6 2
11 -5 12 -14 1 -10 7 -45 13 -78 7 -33 13 -67 14 -75 1 -8 6 -23 10 -32 5 -10
6 -25 2 -33 -3 -8 -2 -15 3 -15 11 0 46 -81 60 -140 12 -47 24 -76 48 -123 17
-32 7 -52 -17 -36 -11 8 -12 12 -2 16 13 5 7 23 -9 23 -6 0 -7 -4 -4 -10 3 -5
1 -10 -5 -10 -6 0 -8 -10 -4 -25 4 -15 2 -25 -5 -25 -6 0 -13 11 -17 25 -3 13
-12 29 -20 36 -11 9 -11 15 -3 25 14 17 36 18 42 2 3 -8 6 -6 6 5 1 9 -4 17
-10 17 -6 0 -8 7 -5 15 8 21 -14 54 -31 48 -7 -3 -10 -9 -7 -14 3 -5 9 -7 13
-5 14 9 5 -29 -14 -57 -21 -33 -28 -28 -48 33 -19 57 -45 126 -63 167 -16 35
-18 53 -6 53 7 0 32 -63 34 -87 1 -7 5 -13 9 -13 5 0 11 -16 15 -36 4 -21 10
-31 14 -24 9 15 0 60 -12 60 -5 0 -6 5 -3 10 3 6 -3 22 -15 37 -16 20 -18 28
-8 35 9 5 10 8 1 8 -6 0 -15 9 -18 21 -5 15 -10 18 -20 9 -10 -9 -16 -7 -24 9
-6 11 -11 28 -11 39 0 10 -3 22 -6 25 -4 4 -8 26 -10 49 -1 24 -7 79 -12 123
-5 44 -5 85 -1 91 4 5 6 20 2 32 -8 33 17 115 31 103 8 -7 16 -4 24 9 6 11 8
22 3 25 -5 3 -11 -1 -14 -7 -2 -7 -7 -10 -11 -6 -9 8 24 118 36 118 4 0 5 -15
2 -32 -4 -23 -2 -28 4 -18 12 20 26 79 14 62 -8 -11 -10 -11 -15 2 -3 8 -2 18
3 21 5 3 12 20 15 38 4 17 12 37 17 44 5 6 11 47 14 89 4 77 14 116 14 56 0
-17 4 -33 8 -36 15 -9 5 76 -11 94 -20 23 -31 60 -19 60 6 0 13 -6 15 -12 3
-8 6 -6 6 5 1 11 -6 17 -20 17 -20 0 -21 3 -15 56 5 41 3 54 -5 48 -9 -5 -10
7 -7 45 3 28 1 51 -3 51 -5 0 -9 7 -9 16 0 8 4 13 9 10 4 -3 6 7 3 22 -5 24
-6 24 -13 7 -7 -18 -8 -18 -9 5 -2 14 -2 31 -1 38 1 6 -2 12 -7 12 -4 0 -9 12
-9 28 -1 15 -4 39 -7 55 -4 15 -2 27 4 27 5 0 10 -9 10 -20 0 -11 5 -20 10
-20 6 0 10 17 9 38 0 20 -3 31 -6 25 -9 -25 -19 -12 -20 27 -1 26 2 38 9 34
10 -7 28 13 28 31 0 6 -5 3 -10 -5 -6 -9 -10 -10 -10 -3 0 6 4 15 10 18 5 3 7
20 4 38 -4 24 -3 28 5 17 8 -12 11 -8 11 20 -1 33 -1 34 -16 15 -17 -22 -17
-28 1 60 4 20 2 23 -11 18 -14 -5 -15 -3 -4 17 11 21 10 26 -8 41 -12 9 -19
19 -16 22 3 3 -3 15 -14 27 -11 12 -18 28 -15 36 3 8 -1 14 -8 14 -11 0 -11 3
1 10 12 8 13 12 2 19 -8 4 -13 12 -13 17 1 5 -6 17 -15 27 -8 11 -13 25 -10
33 3 8 1 14 -5 14 -6 0 -9 6 -6 14 3 7 1 18 -4 23 -6 6 -11 26 -12 45 -1 20
-9 43 -16 52 -9 11 -10 16 -2 16 7 0 8 6 2 18 -17 33 -29 68 -56 155 -22 70
-25 91 -15 102 8 9 10 27 6 45 -5 30 -5 30 15 16 15 -10 29 -12 50 -6z m373
-15 c22 -17 59 -19 85 -6 15 9 17 3 15 -67 -1 -42 3 -82 8 -89 5 -7 7 -16 4
-21 -3 -6 1 -15 10 -22 12 -10 12 -15 2 -21 -9 -6 -8 -12 4 -26 12 -13 14 -23
8 -33 -5 -8 -9 -24 -9 -35 0 -17 1 -17 10 4 11 29 24 21 14 -9 -5 -14 -13 -20
-28 -18 -27 4 -59 37 -53 55 3 7 1 13 -4 13 -6 0 -10 9 -10 20 0 11 -5 20 -11
20 -6 0 -8 7 -5 16 3 9 -5 30 -20 49 -24 32 -25 55 -4 55 5 0 17 -16 26 -35
22 -46 34 -44 29 5 -2 22 1 42 6 46 5 3 7 14 4 24 -3 10 -1 21 5 25 5 3 10 11
10 17 0 7 -6 6 -15 -2 -8 -7 -15 -22 -15 -34 0 -35 -16 -52 -33 -37 -10 8 -17
9 -22 1 -10 -16 -28 -12 -21 5 3 8 1 15 -5 15 -6 0 -7 5 -4 10 5 8 12 7 22 -2
14 -11 15 -11 5 7 -23 43 -40 85 -34 85 4 0 16 -7 26 -15z"/>
<path d="M2570 3370 c0 -4 3 -10 7 -14 4 -4 8 -13 8 -19 1 -7 11 -34 23 -60
12 -27 22 -55 22 -63 0 -7 11 -38 24 -68 13 -29 27 -67 31 -84 3 -17 14 -33
23 -37 9 -3 13 -3 9 1 -4 4 -2 13 4 21 8 9 8 13 1 13 -6 0 -14 21 -17 48 -12
87 -27 156 -40 177 -7 11 -16 36 -19 55 -5 32 -9 35 -41 36 -19 0 -35 -2 -35
-6z"/>
<path d="M2780 3465 c-13 -14 -18 -25 -12 -25 7 0 12 -8 12 -18 0 -10 9 -37
20 -60 12 -24 18 -48 14 -54 -4 -7 -3 -8 4 -4 7 4 12 1 12 -9 0 -9 -4 -13 -10
-10 -5 3 -10 1 -10 -4 0 -6 6 -11 13 -11 7 0 20 -9 29 -19 14 -16 14 -20 2
-25 -8 -3 -14 -11 -13 -18 0 -10 2 -10 6 0 3 9 9 10 18 2 9 -7 16 -6 25 5 7 8
8 15 2 15 -5 0 -15 30 -22 68 -7 37 -16 74 -21 83 -4 9 -4 20 1 25 5 5 11 22
14 37 4 23 2 27 -9 17 -11 -9 -16 -7 -25 9 -14 27 -21 26 -50 -4z"/>
<path d="M3560 3328 c0 -49 -3 -68 -10 -58 -5 8 -12 11 -17 7 -4 -4 -2 -16 4
-25 6 -10 11 -36 11 -59 1 -78 49 -156 103 -168 16 -4 29 -11 29 -16 0 -12
-17 -12 -25 1 -3 6 -11 10 -17 10 -7 0 -6 -6 2 -15 14 -17 46 -20 55 -5 3 5
13 6 22 3 15 -6 14 -7 -2 -13 -17 -6 -16 -8 7 -12 16 -3 25 -1 22 4 -4 6 2 8
12 6 12 -2 18 -11 16 -21 -2 -14 2 -16 20 -12 17 4 29 -1 46 -20 12 -14 21
-27 19 -29 -1 -2 2 -8 7 -13 5 -5 6 -2 1 6 -5 9 -3 12 6 9 8 -3 13 -12 13 -21
-1 -9 4 -13 12 -10 8 3 14 0 14 -6 0 -6 8 -8 18 -5 14 5 15 4 2 -5 -13 -9 -13
-12 -1 -20 8 -5 19 -7 26 -5 6 3 22 -8 35 -22 21 -23 22 -26 6 -20 -16 6 -17
4 -6 -9 7 -9 19 -14 26 -11 7 2 20 -4 30 -15 22 -25 39 -24 65 2 22 22 23 49
5 169 -2 14 -7 48 -10 75 -5 45 -5 47 4 15 6 -19 15 -44 21 -56 6 -11 12 -39
13 -61 2 -22 7 -46 11 -53 4 -6 11 -24 15 -38 6 -18 8 -1 5 51 -1 42 -8 83
-14 91 -6 7 -9 21 -5 30 3 9 2 22 -4 29 -8 10 -42 179 -42 210 0 5 -9 7 -19 4
-12 -3 -22 1 -26 11 -3 8 -8 13 -10 10 -3 -3 1 -18 10 -34 17 -33 20 -64 5
-64 -5 0 -10 7 -10 16 0 8 -5 12 -10 9 -7 -4 -7 -12 0 -25 5 -10 10 -28 10
-40 0 -12 4 -18 10 -15 6 4 8 11 5 16 -4 5 -3 15 1 21 6 9 10 5 15 -12 12 -43
10 -60 -6 -54 -11 5 -13 -2 -9 -33 3 -21 10 -49 15 -63 8 -21 10 -80 2 -80 -1
0 -14 5 -28 12 -19 9 -28 9 -37 0 -9 -9 -4 -12 20 -12 21 0 32 -5 32 -14 0
-22 -20 -30 -21 -9 0 10 -3 13 -6 6 -4 -12 -9 -11 -52 14 -2 2 1 9 8 17 9 11
8 15 -3 19 -10 4 -13 1 -9 -9 6 -16 -6 -18 -27 -3 -11 8 -12 12 -2 16 17 7 15
20 -3 20 -8 0 -11 -5 -8 -10 3 -5 0 -7 -8 -5 -8 3 -13 13 -13 22 1 11 -4 16
-15 14 -9 -1 -36 11 -60 27 -35 24 -40 30 -25 35 16 6 16 7 1 13 -8 3 -17 1
-19 -5 -2 -6 -24 0 -56 16 -39 20 -50 30 -46 44 5 13 4 14 -4 3 -23 -32 -114
9 -118 54 0 6 -5 18 -9 29 -5 11 -3 32 3 51 9 24 9 40 1 64 -8 23 -8 39 -1 56
7 16 7 26 -1 34 -22 22 -27 10 -27 -61z"/>
<path d="M2368 3369 c-2 -7 -18 -13 -34 -14 -22 0 -30 -5 -32 -22 -2 -13 2
-23 8 -23 7 0 10 -7 7 -15 -4 -8 -2 -17 2 -20 5 -2 12 -22 15 -42 6 -33 24
-92 44 -143 3 -8 6 -19 7 -25 0 -5 3 -14 7 -20 3 -5 14 -46 23 -90 18 -81 41
-135 59 -135 6 0 6 -4 -1 -11 -11 -11 4 -59 20 -59 10 0 9 23 -4 100 -6 36
-13 74 -14 85 -2 11 -4 22 -5 25 -1 3 -2 9 -1 14 1 4 -2 13 -7 20 -5 6 -15 40
-21 76 -7 36 -21 98 -32 139 -11 41 -22 95 -25 120 -6 50 -10 59 -16 40z"/>
<path d="M5585 3309 c-16 -5 -54 -9 -82 -7 -29 1 -56 -1 -60 -5 -3 -4 -1 -7 5
-7 7 0 11 -3 11 -7 -4 -27 5 -43 32 -61 17 -10 30 -22 30 -26 -1 -3 0 -8 0
-11 1 -3 2 -13 3 -23 1 -20 23 -52 36 -52 3 0 7 7 7 15 0 9 -6 14 -13 11 -8
-3 -11 0 -7 10 3 7 6 14 7 14 0 0 19 7 41 15 l40 14 -52 1 c-29 0 -53 5 -53
10 0 6 9 10 19 10 10 0 22 7 25 15 4 12 10 14 25 5 11 -5 30 -9 43 -9 18 1 19
2 5 6 -17 4 -17 6 -2 29 14 22 14 25 0 30 -8 3 -15 12 -15 20 0 16 -3 16 -45
3z"/>
<path d="M5973 3184 c-4 -10 -9 -11 -18 -4 -22 18 -42 -48 -49 -160 -3 -52
-30 -127 -51 -142 -6 -4 -17 12 -26 40 -32 95 -32 92 -12 85 16 -6 16 -4 -2
18 -11 13 -22 26 -24 29 -2 3 0 -6 4 -18 6 -21 4 -23 -14 -17 -13 4 -26 0 -38
-14 -33 -36 -39 -46 -35 -63 3 -13 -1 -16 -13 -12 -15 6 -15 4 -3 -16 11 -19
11 -24 -3 -32 -12 -9 -14 -21 -8 -67 8 -59 4 -75 -12 -51 -8 12 -5 -281 5
-414 2 -39 -18 -157 -32 -185 -15 -28 -53 -57 -73 -53 -12 2 0 -51 13 -59 9
-6 10 -11 2 -16 -7 -5 -9 -28 -7 -58 15 -183 8 -311 -18 -340 -5 -5 -9 -21 -9
-35 0 -15 -3 -30 -7 -33 -3 -4 -8 -19 -10 -34 -2 -16 -6 -41 -8 -58 -10 -64
-10 -101 -1 -113 7 -9 5 -16 -4 -22 -8 -5 -12 -12 -8 -15 4 -4 0 -28 -8 -55
-23 -79 -32 -138 -22 -148 6 -6 6 -17 0 -28 -5 -11 -10 -38 -11 -61 -1 -24 -2
-51 -2 -60 -1 -10 -16 -73 -35 -139 -33 -116 -40 -180 -32 -277 3 -38 3 -38
-14 -17 -14 18 -18 19 -18 6 0 -9 5 -16 11 -16 7 0 9 -11 6 -27 -6 -31 1 -53
15 -53 6 0 5 6 -2 15 -11 14 -6 35 8 35 13 0 13 -52 0 -67 -8 -10 -8 -17 0
-25 9 -9 12 -8 12 5 0 9 7 17 15 17 9 0 15 -6 13 -13 -2 -6 8 -30 21 -52 13
-22 25 -48 26 -57 2 -24 15 -36 15 -14 0 14 8 10 39 -16 22 -18 36 -37 32 -41
-13 -13 -1 -47 16 -47 8 0 11 -5 7 -11 -3 -6 -1 -15 6 -19 18 -11 -41 -10 -62
1 -11 6 -15 16 -11 26 4 11 3 14 -5 9 -7 -4 -12 -2 -12 3 0 6 -7 11 -15 11 -8
0 -14 6 -13 13 2 6 -3 11 -9 9 -7 -1 -13 2 -13 8 0 5 -27 37 -59 69 -33 33
-57 62 -54 65 4 3 -1 14 -10 23 -8 10 -19 32 -23 48 -3 17 -14 38 -22 48 -12
13 -13 20 -4 29 7 7 8 17 1 30 -5 10 -7 18 -3 18 3 0 2 6 -4 13 -12 15 -10
145 4 172 5 11 9 35 9 52 0 18 2 33 5 33 7 0 30 99 30 131 0 14 5 30 11 36 8
8 8 13 0 17 -14 9 -14 103 -1 111 6 4 7 12 3 18 -10 16 -9 49 2 66 4 8 9 30
11 50 1 20 3 37 4 39 2 1 3 5 5 10 1 4 5 15 9 24 4 9 2 26 -4 38 -9 16 -9 24
-1 29 6 4 11 30 12 59 1 29 6 55 11 58 4 3 8 10 8 15 0 6 -4 7 -10 4 -5 -3
-10 -2 -10 3 0 6 6 12 14 15 7 3 16 15 19 27 4 16 1 20 -11 18 -9 -2 -16 -11
-16 -20 1 -10 -3 -16 -9 -15 -7 1 -12 -20 -13 -53 -1 -30 -5 -71 -9 -90 -3
-19 -8 -66 -10 -105 -4 -50 -10 -74 -22 -82 -10 -8 -12 -13 -4 -13 7 0 9 -5 5
-12 -5 -7 -9 -72 -10 -143 -2 -100 -7 -148 -23 -201 -11 -39 -25 -97 -30 -130
-4 -32 -12 -67 -16 -76 -4 -10 -3 -18 3 -18 5 0 8 -18 7 -40 -1 -22 2 -40 6
-40 5 0 9 -12 9 -27 1 -40 24 -121 38 -135 15 -15 15 -35 0 -44 -7 -4 -8 -3
-4 4 5 8 -2 12 -18 12 -14 0 -26 5 -26 11 0 8 -4 8 -12 1 -13 -11 -68 -5 -68
7 0 11 -74 -1 -82 -13 -12 -18 -9 -71 6 -91 9 -13 11 -28 5 -47 -4 -16 -5 -36
-2 -45 5 -12 2 -15 -10 -10 -9 3 -19 1 -23 -4 -9 -15 -30 19 -38 63 -11 58
-21 52 -20 -12 0 -33 -3 -57 -8 -54 -16 10 -46 -16 -41 -35 3 -14 -2 -20 -22
-25 -14 -4 -30 -4 -35 -1 -5 3 -11 1 -15 -5 -3 -5 -13 -10 -22 -10 -13 0 -13
3 -3 15 11 13 8 15 -18 15 -17 0 -32 -6 -36 -15 -6 -17 -76 -21 -76 -5 0 6 16
10 35 10 19 0 35 5 35 10 0 10 -26 13 -97 12 -18 0 -35 4 -38 9 -4 5 -17 9
-30 9 -18 0 -23 -4 -19 -15 5 -11 -1 -15 -20 -15 -14 0 -26 5 -26 10 0 6 -11
8 -25 4 -20 -5 -26 -1 -35 20 -5 14 -16 26 -25 26 -29 0 -11 39 25 53 9 3 10
6 3 6 -20 1 -15 31 5 32 10 0 12 3 5 6 -18 7 -16 23 2 23 19 0 20 19 0 26 -15
6 -11 58 7 80 5 7 3 16 -6 23 -16 14 -18 49 -3 69 6 8 6 12 -2 12 -6 0 -11 7
-11 15 0 8 5 15 11 15 5 0 7 5 4 10 -3 6 3 10 14 10 12 0 21 5 21 10 0 6 -7
10 -16 10 -10 0 -14 6 -11 14 3 7 0 19 -6 25 -9 10 -8 15 5 25 22 16 34 71 19
80 -19 12 -12 24 18 31 16 3 36 13 43 22 11 14 10 15 -12 9 -24 -7 -24 -7 -5
9 16 12 17 18 7 24 -11 7 -10 10 3 15 9 3 21 4 26 1 5 -3 19 0 31 7 23 12 23
12 -7 19 -25 6 -26 7 -7 8 35 2 105 81 72 81 -17 0 -5 38 20 65 14 14 23 37
23 54 0 17 7 33 14 35 8 3 12 10 8 15 -9 15 5 61 19 61 6 0 16 11 23 25 6 14
7 25 3 25 -4 0 -6 9 -3 20 3 11 10 20 15 20 6 0 7 11 4 24 -4 15 -1 30 8 39 8
8 19 30 23 48 5 19 15 34 23 34 7 0 17 9 21 20 7 17 8 15 7 -10 0 -16 4 -43
11 -58 6 -16 11 -34 11 -41 0 -6 6 -18 12 -24 10 -10 10 -15 -1 -21 -7 -5 -10
-14 -6 -20 4 -7 2 -18 -4 -25 -9 -10 -8 -15 4 -20 17 -6 17 -9 19 139 1 55 -1
117 -5 137 -8 51 0 88 20 89 9 1 5 4 -9 8 -18 5 -29 2 -40 -9 -8 -9 -21 -15
-28 -12 -9 2 -12 -3 -10 -14 2 -11 -2 -18 -9 -16 -7 1 -13 -7 -13 -18 0 -11
-4 -20 -9 -20 -13 0 -20 -37 -9 -48 6 -6 3 -15 -10 -23 -26 -19 -38 -59 -21
-70 11 -7 10 -9 -5 -9 -13 0 -17 -5 -13 -20 3 -14 -3 -29 -19 -45 -24 -24 -32
-55 -15 -55 5 0 6 -12 2 -28 -5 -15 -13 -26 -19 -25 -18 4 -34 -25 -35 -62 -1
-31 -4 -36 -22 -31 -11 3 -24 6 -28 6 -5 0 -5 5 -2 10 3 6 -3 10 -14 10 -12 0
-21 -4 -21 -10 0 -5 6 -10 13 -10 8 0 7 -4 -3 -10 -21 -14 -30 -12 -30 5 0 8
-5 15 -11 15 -6 0 -8 -9 -4 -20 4 -12 1 -27 -5 -35 -7 -8 -9 -15 -5 -15 4 0
-4 -9 -18 -20 -19 -15 -28 -34 -33 -68 -3 -26 -11 -53 -16 -60 -8 -8 -6 -12 5
-12 11 0 14 -5 10 -17 -5 -12 -3 -14 7 -8 9 5 11 4 6 -3 -4 -7 -13 -12 -20
-12 -8 0 -16 -9 -19 -21 -4 -15 -2 -19 9 -15 17 7 17 5 2 -31 -6 -15 -12 -41
-14 -57 -1 -16 -8 -33 -15 -38 -11 -7 -11 -11 -1 -15 6 -2 9 -10 5 -16 -4 -6
-8 -25 -10 -41 -2 -17 -9 -34 -16 -38 -9 -6 -9 -8 1 -8 9 0 11 -16 8 -60 -3
-46 -1 -60 10 -60 19 0 18 -16 -1 -24 -8 -3 -15 -10 -15 -16 0 -6 5 -8 11 -4
8 5 8 1 0 -14 -12 -23 -5 -52 13 -52 6 0 -2 -12 -19 -27 -16 -14 -31 -36 -32
-47 -4 -45 -9 -62 -22 -76 -9 -10 -10 -15 -2 -18 20 -7 12 -21 -21 -36 -52
-23 -78 -26 -78 -10 0 15 -31 18 -92 8 -51 -9 -48 -22 5 -27 l42 -4 -47 -1
c-26 -1 -50 2 -53 8 -3 5 -16 10 -28 11 -21 0 -21 1 -2 8 11 5 25 6 31 4 7 -2
15 0 18 5 3 5 -9 12 -27 16 -19 4 -33 2 -35 -4 -2 -5 -8 -10 -13 -10 -4 0 -6
7 -2 16 5 13 2 15 -16 9 -16 -5 -27 -1 -37 12 -14 17 -14 17 -29 -1 -8 -11
-15 -27 -15 -36 0 -25 -10 -31 -32 -19 -13 7 -17 16 -13 30 4 11 2 19 -4 19
-6 0 -11 -9 -11 -20 0 -11 -5 -20 -10 -20 -6 0 -8 -11 -4 -26 5 -21 4 -25 -6
-19 -10 6 -12 1 -7 -22 6 -30 6 -30 -46 -36 -29 -4 -65 -4 -82 0 -16 3 -40 6
-52 6 -13 -1 -23 2 -23 6 0 11 -149 -6 -200 -23 -42 -13 -29 -14 193 -15 144
0 235 4 232 10 -4 5 6 9 20 9 30 0 68 31 47 38 -17 5 -15 22 3 22 9 0 18 -7
21 -15 5 -11 10 -13 19 -5 8 7 15 7 19 1 3 -5 31 -8 61 -7 33 1 55 -2 55 -8 0
-6 4 -5 9 2 10 17 61 5 61 -14 0 -8 -5 -14 -12 -14 -6 0 -9 -3 -5 -6 3 -3 42
-8 87 -11 61 -4 91 -1 123 12 26 10 73 17 127 18 47 1 88 6 92 12 5 6 8 6 8
-2 0 -16 27 -17 32 -3 5 17 108 36 176 33 41 -2 62 1 62 8 0 7 11 9 30 5 22
-4 32 -1 36 9 5 12 45 27 84 31 35 3 40 5 40 14 0 6 -6 10 -13 10 -31 0 -35
22 -9 46 17 15 20 22 10 18 -20 -7 -24 6 -6 24 9 9 9 18 0 37 -11 24 -10 25
26 27 20 1 53 2 72 3 19 1 48 -4 64 -11 16 -8 32 -11 37 -8 13 7 91 -45 86
-59 -2 -7 10 -17 27 -22 21 -7 30 -16 28 -28 -2 -12 4 -17 19 -17 15 0 19 -5
15 -15 -3 -9 0 -15 9 -15 21 0 28 -19 14 -37 -11 -13 -10 -17 6 -30 11 -7 30
-16 43 -18 12 -3 33 -7 46 -10 14 -3 31 -11 38 -19 19 -18 173 -22 162 -4 -5
8 -2 9 12 3 32 -13 187 -19 180 -6 -4 6 0 11 9 11 9 0 14 -4 11 -8 -3 -5 39
-8 92 -8 67 1 96 5 95 12 -1 7 6 10 16 7 10 -3 22 0 26 7 5 8 12 7 25 -5 27
-25 84 -17 88 13 2 12 7 22 12 22 7 0 8 19 1 63 0 4 -8 7 -16 7 -9 0 -15 9
-15 21 0 15 5 19 16 15 8 -3 12 -2 9 4 -3 6 -13 10 -21 10 -14 0 -19 26 -8 54
3 9 12 16 20 16 8 0 14 4 14 9 0 12 193 6 212 -6 7 -4 15 -8 18 -9 31 -6 60
-18 60 -25 0 -5 6 -6 14 -3 7 3 20 -2 29 -10 9 -9 18 -16 22 -16 4 0 13 -7 21
-15 8 -8 21 -18 28 -22 22 -14 115 -136 110 -145 -3 -4 18 -8 46 -8 29 0 50 3
48 8 -32 70 -52 103 -72 123 -14 13 -26 28 -26 34 0 27 -159 135 -199 135 -6
0 -24 9 -39 20 -21 16 -48 21 -126 25 -59 2 -102 9 -106 16 -6 8 -9 8 -15 -1
-4 -6 -19 -10 -33 -9 -15 2 -32 0 -39 -4 -8 -5 -10 7 -8 45 5 67 -10 35 -19
-39 -5 -46 -4 -53 11 -53 15 0 15 -1 -2 -13 -14 -11 -15 -16 -5 -22 10 -6 9
-9 -1 -16 -11 -7 -11 -14 0 -44 9 -27 10 -40 2 -48 -6 -6 -11 -8 -11 -4 0 3
-12 -5 -27 -19 -27 -25 -32 -26 -113 -20 -47 3 -86 10 -88 14 -1 5 -10 18 -18
28 -15 19 -15 18 -9 -1 5 -17 4 -18 -7 -7 -11 11 -10 16 6 28 17 12 18 14 3
14 -22 0 -22 16 1 29 17 10 15 12 -10 15 -7 0 -14 10 -17 21 -4 23 -19 35 -41
34 -11 0 -12 -2 -2 -6 21 -8 35 -55 20 -65 -10 -6 -10 -8 0 -8 18 0 15 -27 -4
-34 -15 -6 -14 -8 3 -24 22 -19 20 -42 -5 -42 -15 -1 -15 -2 1 -14 22 -17 22
-26 -3 -26 -11 0 -20 -4 -20 -9 0 -19 -69 -42 -107 -35 -21 4 -47 7 -58 6 -25
-2 -75 18 -75 30 0 5 -16 6 -35 2 -28 -5 -35 -3 -36 10 -3 37 -16 59 -30 51
-8 -6 -13 10 -12 41 0 6 -8 9 -17 7 -12 -3 -20 2 -25 16 -3 12 -11 21 -16 21
-5 0 -9 5 -9 10 0 15 18 12 39 -7 64 -60 82 -74 108 -77 15 -2 39 -6 53 -9 56
-13 149 -17 155 -6 4 6 17 8 29 5 36 -9 51 9 19 23 l-28 13 22 17 c28 24 31
40 10 79 -10 17 -15 32 -12 32 3 0 -5 15 -17 34 -78 115 -100 151 -130 212
-29 61 -33 79 -34 159 -2 91 11 247 23 275 6 13 13 91 14 145 0 11 6 28 14 38
13 18 14 18 34 0 12 -9 21 -26 21 -36 0 -10 5 -15 10 -12 9 6 15 -16 11 -39
-1 -4 2 -13 7 -20 12 -14 31 -74 37 -112 7 -48 61 -226 84 -276 11 -26 21 -51
21 -56 0 -5 7 -15 15 -22 9 -7 14 -15 11 -17 -2 -3 10 -32 28 -66 18 -34 37
-73 41 -87 13 -42 35 -51 67 -27 22 17 28 29 29 61 0 25 3 34 7 24 6 -15 9
-14 19 7 6 15 7 27 2 31 -5 3 -9 15 -10 27 0 19 -1 20 -7 4 -5 -12 -12 7 -21
55 -7 40 -19 84 -26 98 -7 14 -11 33 -10 43 2 9 -1 17 -7 17 -6 0 -8 11 -4 28
5 21 4 24 -4 12 -8 -11 -9 -5 -5 25 4 31 3 36 -5 20 -8 -15 -9 -8 -5 30 3 33
2 43 -4 30 -8 -18 -9 -17 -16 10 -4 17 -9 38 -12 48 -2 9 0 17 6 17 6 0 11
-10 11 -22 0 -12 3 -19 6 -16 3 3 2 23 -2 44 -6 31 -8 35 -14 19 -7 -19 -8
-18 -18 5 -29 74 -54 174 -43 178 6 2 11 8 11 13 0 6 -5 7 -10 4 -17 -11 -37
19 -44 66 -5 28 -4 39 2 30 5 -7 12 -9 15 -4 3 4 -1 16 -8 26 -10 14 -14 15
-18 5 -3 -7 -6 -3 -6 10 -1 13 4 33 10 44 8 14 8 23 0 31 -6 6 -11 21 -11 34
0 13 -4 23 -9 23 -12 0 -23 48 -14 63 5 8 10 1 14 -18 5 -24 7 -20 7 20 0 28
-2 44 -5 38 -2 -7 -8 -13 -13 -13 -11 0 -1 91 11 107 7 7 5 13 -3 16 -10 4
-10 6 0 6 6 1 12 12 12 25 0 13 -6 27 -12 30 -10 5 -10 7 0 12 7 3 11 23 11
47 l-2 42 -7 -40 c-4 -22 -8 -33 -9 -25 -10 66 -10 99 -1 105 15 9 12 35 -4
35 -9 0 -15 24 -19 89 -3 49 -12 100 -19 112 -7 13 -14 26 -15 28 -4 6 -60
-57 -67 -74 -8 -23 -35 -18 -45 8 -11 27 -22 160 -26 297 -2 97 11 227 25 245
5 6 9 15 9 20 0 9 100 26 110 19 10 -8 -13 -22 -47 -28 -38 -6 -63 -25 -75
-58 -4 -10 -2 -18 3 -18 6 0 10 6 10 14 0 7 14 19 30 26 17 7 30 16 30 21 0 5
11 9 25 9 25 0 51 32 40 50 -4 6 -1 9 6 8 8 -2 14 7 15 21 1 14 8 29 16 35 8
6 13 17 10 25 -3 8 0 11 7 7 6 -4 11 -1 11 8 0 9 -8 16 -17 16 -15 0 -15 1 -1
13 11 8 15 24 13 47 -1 19 -4 36 -5 38 -5 6 -3 49 3 59 4 6 9 41 12 76 4 49 2
69 -9 80 -8 8 -13 17 -10 20 3 3 -2 19 -12 36 -20 33 -52 47 -61 25z m49 -96
c3 -15 1 -28 -4 -28 -5 0 -5 -7 0 -15 10 -19 -16 -218 -29 -223 -5 -2 -9 -10
-9 -19 0 -26 -27 9 -35 46 -7 32 -8 126 -2 189 2 17 4 42 5 55 2 19 8 23 36
23 30 0 35 -4 38 -28z m-329 -2607 c23 -21 27 -32 23 -57 -5 -24 -3 -31 9 -31
9 0 14 6 11 13 -3 8 0 11 9 8 8 -3 11 -12 8 -20 -3 -8 0 -21 7 -29 14 -17 5
-36 -15 -28 -22 8 -18 -10 10 -43 19 -22 27 -26 37 -16 6 6 8 12 2 12 -5 0 -9
12 -8 28 1 15 -3 35 -8 45 -5 10 -7 21 -4 25 4 3 12 -9 18 -26 7 -18 16 -32
19 -32 4 0 3 -15 -2 -32 -5 -18 -9 -34 -9 -35 0 -2 10 -3 22 -3 16 0 19 -3 11
-11 -7 -7 -16 -7 -29 0 -11 5 -31 12 -46 16 -19 4 -28 12 -28 25 0 11 -4 20
-10 20 -5 0 -10 11 -10 24 0 14 -5 28 -11 31 -17 11 -22 -1 -9 -24 6 -12 7
-21 3 -20 -15 2 -80 84 -87 109 -6 20 -5 22 4 10 9 -11 13 -12 17 -2 2 6 9 10
14 6 5 -3 9 -1 9 5 0 5 3 16 6 25 4 11 0 16 -15 16 -13 0 -19 -5 -15 -13 3 -8
-2 -14 -10 -14 -12 0 -14 7 -9 26 3 14 6 31 6 38 0 16 37 -5 80 -46z"/>
<path d="M1088 3137 c-10 -7 -10 -10 -1 -14 9 -3 10 -10 3 -23 -11 -21 -4
-127 11 -167 6 -16 6 -29 1 -31 -11 -3 -3 -50 9 -58 14 -8 11 -72 -3 -77 -10
-4 -9 -8 2 -16 16 -11 18 -157 6 -371 -8 -131 -8 -117 0 -169 4 -31 2 -46 -7
-53 -11 -8 -10 -9 3 -5 13 5 19 -4 27 -44 13 -60 13 -81 0 -54 -8 17 -9 17 -4
-5 2 -14 5 -32 6 -40 0 -10 3 -8 9 5 7 17 9 14 9 -13 1 -23 -3 -31 -11 -26 -8
5 -10 -7 -5 -45 4 -37 3 -50 -5 -45 -8 5 -9 -5 -4 -35 4 -30 3 -40 -4 -36 -8
5 -9 -11 -4 -54 6 -54 4 -64 -12 -76 -16 -12 -17 -14 -3 -15 14 0 16 -10 13
-62 -3 -40 -1 -58 5 -49 6 9 11 -24 16 -95 6 -104 15 -152 38 -201 9 -21 11
-21 23 -5 7 9 9 18 4 20 -6 2 -6 11 -1 20 5 9 15 43 22 75 12 55 23 71 31 45
3 -7 7 -6 11 5 4 11 1 17 -7 17 -19 0 -10 82 10 93 8 4 14 13 14 20 0 7 -4 6
-10 -3 -7 -10 -10 11 -9 73 1 48 6 87 11 87 6 0 7 13 3 31 -5 21 -4 29 4 25 7
-5 8 13 4 59 -6 61 -5 65 13 58 16 -6 17 -4 7 8 -14 17 -15 99 -1 99 5 0 6 5
3 10 -4 6 -10 8 -15 5 -11 -7 -19 40 -9 57 4 7 1 27 -7 43 -8 18 -12 21 -8 8
7 -29 -2 -30 -17 -2 -8 17 -8 23 2 30 10 6 10 10 0 23 -7 8 -10 19 -7 25 6 10
-23 25 -32 16 -3 -3 1 -5 8 -5 7 0 10 -3 7 -7 -4 -3 0 -15 10 -25 14 -16 14
-18 1 -18 -22 0 -35 44 -36 115 0 69 7 107 18 100 5 -3 6 10 3 30 -4 24 -2 35
7 35 8 0 10 8 6 25 -5 19 -2 25 10 25 13 0 14 3 4 15 -7 9 -8 15 -2 15 17 0
35 197 19 207 -4 3 -2 12 5 21 10 12 10 16 1 19 -7 3 -13 11 -13 19 0 9 4 13
8 10 10 -6 14 42 5 58 -4 6 -8 26 -9 45 0 19 -8 39 -17 46 -10 7 -17 21 -17
32 0 11 -7 26 -15 33 -9 7 -14 19 -11 27 3 7 1 13 -5 13 -5 0 -14 12 -20 28
-6 15 -9 27 -8 27 1 0 -3 10 -9 21 -12 23 -63 36 -84 21z m73 -107 c19 -10 59
-78 59 -100 0 -6 -5 -8 -12 -4 -7 5 -3 -5 10 -20 24 -31 31 -96 10 -96 -7 0
-5 -5 5 -11 21 -12 25 -90 5 -85 -7 1 -10 1 -5 -1 4 -3 4 -10 1 -15 -5 -7 -2
-8 6 -3 9 5 10 2 6 -11 -3 -11 -8 -43 -10 -73 -3 -30 -11 -59 -17 -65 -9 -8
-10 -8 -5 1 5 9 2 11 -8 7 -9 -3 -12 -12 -9 -21 4 -11 2 -14 -5 -9 -7 4 -12
20 -12 36 0 16 -4 32 -10 35 -12 7 -14 65 -2 65 5 0 9 7 9 15 0 8 -6 15 -14
15 -7 0 -13 11 -13 25 0 14 5 25 10 25 6 0 10 5 10 11 0 5 -4 7 -10 4 -12 -8
-23 37 -18 75 3 17 0 30 -5 30 -5 0 -7 6 -4 13 2 6 0 41 -4 77 -12 87 -7 100
32 80z"/>
<path d="M1570 2760 c0 -5 5 -10 10 -10 6 0 10 -11 10 -25 0 -21 6 -26 40 -31
39 -6 50 -17 30 -29 -6 -4 -5 -14 4 -28 7 -12 14 -42 15 -67 1 -30 7 -49 18
-57 20 -16 83 -17 83 -2 0 5 5 7 11 3 6 -3 14 -3 18 2 22 31 91 45 91 19 0 -8
5 -15 10 -15 6 0 10 -7 10 -15 0 -9 7 -18 15 -21 8 -4 15 -12 15 -20 0 -8 5
-14 10 -14 6 0 10 -6 10 -12 1 -18 74 -68 99 -68 23 0 36 -16 21 -25 -5 -3
-10 -11 -10 -17 0 -6 3 -8 7 -5 3 4 13 -2 20 -13 8 -11 19 -18 24 -14 6 3 9
-2 7 -11 -2 -10 3 -20 10 -22 20 -8 14 22 -11 49 -18 19 -23 34 -19 57 3 24 1
31 -12 31 -9 0 -16 6 -16 14 0 8 -16 16 -40 20 -48 8 -85 41 -97 86 -10 39
-68 79 -86 61 -6 -6 -18 -11 -27 -11 -8 0 -28 -7 -45 -16 -19 -10 -42 -13 -62
-9 -35 6 -37 13 -35 93 0 17 -3 32 -8 32 -5 0 -7 7 -4 15 9 22 -15 47 -37 40
-12 -4 -28 3 -44 19 -28 28 -35 31 -35 16z"/>
<path d="M5498 2694 c0 -10 -1 -25 -1 -32 1 -18 -33 -52 -43 -44 -4 4 -5 0 -1
-10 4 -12 -2 -18 -21 -23 -16 -4 -28 -2 -30 4 -2 6 -12 11 -22 11 -10 0 -20 6
-23 13 -2 7 -8 8 -13 3 -5 -5 -4 -11 4 -13 6 -3 12 -11 12 -19 0 -8 4 -14 10
-14 5 0 12 -11 16 -25 3 -14 10 -22 15 -19 5 3 9 0 9 -7 0 -20 33 -38 73 -39
20 0 37 5 37 10 0 6 -7 10 -15 10 -8 0 -15 5 -15 10 0 6 4 10 9 10 5 0 8 22 6
50 -3 27 -1 52 4 55 5 3 8 21 7 40 -4 40 -15 59 -18 29z"/>
<path d="M3614 2677 c6 -20 -1 -30 -56 -84 -21 -20 -35 -40 -32 -44 3 -5 2 -9
-3 -9 -11 0 -43 -58 -43 -79 0 -10 -3 -21 -7 -25 -4 -4 -9 -40 -10 -79 -3 -96
-11 -159 -20 -166 -5 -3 -8 -22 -9 -41 0 -19 -4 -59 -7 -87 -3 -29 -3 -53 1
-53 5 0 7 -26 7 -57 -1 -32 2 -63 7 -70 5 -6 5 -14 -1 -17 -10 -6 -9 -14 5
-53 9 -24 11 -64 4 -68 -3 -2 -5 -31 -4 -64 1 -34 -3 -61 -7 -61 -5 0 -9 35
-9 78 0 42 -4 72 -8 65 -4 -6 -7 -41 -6 -77 1 -36 -2 -69 -8 -72 -6 -4 -5 -9
3 -14 10 -7 10 -12 0 -23 -8 -10 -9 -17 -1 -22 9 -6 14 10 13 43 -1 6 3 12 9
12 5 0 6 -15 3 -32 -8 -45 -10 -226 -3 -323 4 -63 3 -73 -5 -47 -5 17 -14 32
-20 32 -5 0 -6 -8 -2 -17 15 -36 17 -64 5 -78 -8 -9 -8 -15 -2 -15 6 0 13 -8
15 -18 2 -9 3 -6 1 8 -1 14 1 32 6 40 11 18 17 -202 9 -326 l-6 -89 -3 65 -4
65 -3 -57 c-2 -32 1 -67 7 -78 15 -28 39 -170 29 -170 -4 0 -11 21 -15 48 -4
26 -9 41 -12 34 -7 -20 19 -116 28 -102 6 9 11 7 19 -9 10 -17 9 -22 -4 -27
-8 -3 -15 -12 -15 -20 0 -17 17 -18 23 -1 3 6 6 -2 6 -19 1 -17 -6 -37 -14
-44 -8 -7 -15 -17 -15 -22 0 -6 7 -5 15 2 13 10 15 9 15 -8 0 -12 -5 -24 -10
-27 -6 -4 -8 -11 -5 -16 4 -5 3 -14 -1 -21 -4 -7 -9 -26 -11 -42 -2 -17 -7
-34 -12 -39 -5 -5 -7 -15 -4 -22 2 -8 0 -23 -7 -34 -8 -16 -8 -21 1 -21 6 0 9
-6 6 -14 -10 -27 16 -66 44 -66 40 0 89 28 89 51 0 11 -4 18 -9 15 -10 -6 -21
16 -21 40 0 9 5 12 11 8 8 -5 10 1 7 19 -3 15 -1 24 3 21 5 -3 9 4 9 16 0 13
-4 19 -11 14 -6 -3 -4 4 4 17 32 52 40 232 11 253 -11 9 -14 25 -12 64 2 29 1
52 -2 52 -3 0 -6 52 -6 115 0 63 3 115 7 115 7 0 3 67 -7 133 -4 20 -2 43 4
50 5 6 8 40 6 74 -3 36 0 64 6 68 15 9 13 95 -2 95 -9 0 -10 3 -2 8 6 4 12 21
12 37 5 79 20 181 32 213 2 4 4 21 4 37 1 30 5 35 29 35 14 0 14 -4 -7 -145
-4 -28 -1 -24 9 15 23 91 26 167 7 182 -15 11 -15 11 -5 -2 16 -21 -1 -50 -19
-32 -11 11 -17 46 -19 105 0 9 -4 17 -8 17 -4 0 -13 24 -20 53 -8 28 -18 57
-23 63 -4 7 -8 25 -8 40 0 16 -2 79 -4 139 -2 61 -1 115 3 120 11 15 11 54 0
61 -6 3 -3 12 8 20 10 7 13 14 6 14 -15 0 -7 52 10 62 7 4 20 8 30 8 9 0 17 5
17 10 0 6 -7 10 -15 10 -8 0 -15 5 -15 10 0 14 11 12 34 -5 10 -8 16 -21 13
-29 -4 -10 -1 -13 9 -9 8 3 14 2 13 -3 -4 -23 2 -35 17 -32 20 4 52 -48 52
-83 0 -26 10 -75 20 -99 6 -15 7 -25 11 -63 0 -10 5 -15 11 -12 5 3 12 -11 16
-33 4 -24 15 -46 30 -57 13 -10 24 -24 24 -31 0 -8 8 -22 18 -32 23 -26 40
-52 53 -84 6 -16 15 -28 21 -28 5 0 6 -5 2 -11 -3 -6 3 -24 15 -40 12 -16 18
-29 13 -29 -5 0 -9 -14 -10 -32 -1 -23 2 -28 8 -18 13 21 12 3 -1 -22 -8 -15
-8 -19 0 -14 6 4 11 3 11 -3 0 -5 -4 -12 -9 -15 -5 -4 -12 -25 -16 -49 -3 -23
-10 -53 -16 -67 -10 -28 -18 -210 -9 -210 6 0 5 -40 -5 -130 -2 -25 -4 -66 -4
-92 0 -25 -5 -49 -11 -53 -8 -5 -8 -10 0 -20 6 -7 10 -24 8 -37 -1 -12 1 -53
6 -89 10 -83 13 -239 5 -245 -4 -2 4 -33 16 -68 12 -35 20 -76 18 -89 -3 -14
0 -28 6 -31 16 -10 14 -49 -4 -82 -8 -16 -15 -40 -15 -54 0 -26 -24 -71 -57
-105 -32 -34 -34 -51 -6 -79 l25 -26 29 23 c15 12 28 29 28 38 1 21 71 157 72
139 0 -10 3 -8 9 5 12 28 12 43 -1 25 -9 -12 -10 -12 -5 3 3 10 6 32 6 48 0
17 4 28 9 25 10 -7 25 24 16 33 -3 3 -11 -1 -16 -9 -7 -11 -9 -2 -7 33 2 26 0
47 -4 47 -11 0 -19 58 -21 168 -2 104 9 141 16 55 2 -27 3 -14 3 27 -1 45 -5
74 -11 72 -5 -1 -13 19 -16 45 -4 36 -2 51 9 59 11 8 12 15 4 30 -11 18 -11
18 -12 1 0 -10 -4 -16 -8 -13 -5 3 -7 17 -6 33 5 72 26 242 34 276 4 21 4 39
-1 43 -5 3 -9 22 -8 42 0 30 2 33 9 17 7 -16 8 -14 7 12 -1 17 -5 29 -9 27 -6
-4 -4 33 5 116 2 14 7 31 11 38 4 6 9 28 12 48 2 20 12 42 21 49 8 6 13 18 10
26 -4 10 -6 9 -6 -3 -1 -10 -5 -18 -9 -18 -4 0 -8 23 -8 50 0 28 5 50 10 50 5
0 1 6 -9 14 -13 9 -19 26 -19 54 -1 22 -4 43 -8 47 -4 4 -4 -4 -1 -17 l5 -23
-21 25 c-25 30 -27 44 -5 36 17 -7 13 2 -23 50 -13 17 -23 36 -23 42 0 6 -5
14 -12 18 -8 5 -9 2 -5 -9 22 -55 22 -53 6 -37 -36 38 -70 105 -84 167 -8 37
-20 87 -25 111 -6 23 -10 53 -10 67 0 14 -5 25 -12 25 -6 0 -8 3 -5 6 3 4 1
16 -5 28 -7 11 -13 27 -14 34 -1 7 -10 24 -19 38 -19 29 -45 109 -45 140 0 26
-25 78 -46 95 -9 7 -30 12 -47 11 -17 -2 -35 3 -40 10 -6 9 -7 8 -3 -5z"/>
<path d="M3894 2653 c4 -16 7 -34 6 -40 -1 -28 0 -50 4 -93 3 -25 6 -53 6 -62
1 -10 8 -18 16 -18 12 0 19 -19 15 -43 -1 -5 8 -20 19 -34 13 -17 18 -33 14
-49 -4 -15 -2 -24 6 -24 7 0 9 -8 5 -19 -3 -12 0 -21 10 -25 18 -7 20 -43 3
-49 -9 -3 -8 -10 6 -26 13 -14 15 -21 6 -21 -10 0 -10 -3 0 -15 6 -8 9 -18 6
-23 -3 -6 1 -15 9 -22 7 -6 12 -17 9 -24 -3 -7 2 -19 10 -26 9 -7 13 -16 11
-21 -3 -4 2 -17 12 -28 40 -43 48 -56 45 -69 -2 -8 1 -11 7 -7 15 9 14 24 -4
41 -8 9 -15 27 -15 40 0 14 -4 23 -9 20 -5 -3 -14 9 -21 27 -7 17 -16 41 -22
52 -12 27 -15 112 -5 150 6 23 5 27 -4 15 -8 -12 -9 -8 -5 17 4 26 1 33 -14
38 -24 8 -26 23 -5 31 8 4 12 10 9 15 -3 5 0 9 5 9 6 0 11 5 11 10 0 6 -6 10
-13 10 -8 0 -14 6 -14 14 0 8 8 11 19 8 10 -2 18 -8 18 -13 0 -5 4 -9 9 -9 11
0 9 39 -3 58 -4 7 0 26 8 44 20 39 20 54 2 61 -11 4 -13 1 -9 -10 4 -10 2 -14
-5 -9 -6 3 -13 2 -17 -4 -3 -5 -15 -10 -27 -10 -17 0 -18 2 -8 15 11 13 8 15
-19 15 -19 0 -30 4 -26 10 4 6 11 8 16 5 5 -4 9 -1 9 4 0 6 -7 11 -16 11 -8 0
-13 4 -10 9 4 5 0 11 -6 14 -10 3 -10 7 1 20 12 15 11 17 -4 17 -13 0 -15 3
-6 13 14 17 4 27 -27 27 -21 0 -24 -3 -18 -27z"/>
<path d="M1495 2629 c-3 -19 -7 -56 -9 -83 -1 -32 -8 -51 -18 -57 -11 -6 -15
-18 -12 -36 3 -15 0 -30 -7 -34 -10 -6 -10 -11 -1 -22 13 -15 6 -47 -9 -47 -5
0 -9 -7 -9 -15 0 -8 5 -15 10 -15 6 0 10 -15 10 -33 0 -19 3 -37 7 -41 10 -9
11 -46 2 -52 -5 -2 1 -21 13 -42 17 -30 21 -55 22 -129 0 -57 -4 -97 -11 -104
-6 -6 -9 -18 -6 -25 3 -8 1 -14 -4 -14 -5 0 -10 -6 -10 -12 -1 -18 -37 -112
-45 -118 -12 -9 -28 -61 -22 -71 3 -5 0 -9 -5 -9 -6 0 -11 -8 -11 -17 0 -14
-3 -13 -16 6 -12 17 -14 25 -5 30 6 4 9 15 6 24 -4 8 -2 25 4 36 8 13 8 22 1
26 -6 4 -7 11 -4 17 4 5 9 33 13 62 4 32 11 50 19 48 7 -1 12 7 12 18 0 11 -4
19 -9 18 -10 -3 -11 10 -3 30 2 7 2 16 -2 19 -3 4 -6 -1 -6 -10 0 -10 -4 -17
-10 -17 -5 0 -10 -15 -10 -32 0 -64 -5 -98 -14 -98 -4 0 -6 -6 -3 -14 3 -8 3
-17 -1 -21 -8 -8 -11 -44 -10 -135 1 -160 -6 -260 -19 -268 -13 -9 -5 -233 9
-248 4 -3 3 -18 -1 -32 -11 -45 0 -220 19 -283 5 -20 21 -48 35 -63 14 -15 25
-31 25 -36 0 -5 5 -21 12 -37 6 -15 12 -32 12 -38 1 -5 7 -20 14 -33 8 -13 11
-30 8 -38 -3 -8 -1 -14 4 -14 6 0 10 -12 10 -26 0 -14 4 -23 10 -19 5 3 10 -1
10 -9 0 -9 -7 -16 -15 -16 -11 0 -12 -5 -5 -25 6 -16 6 -26 -1 -31 -6 -3 -8
-12 -5 -20 3 -7 1 -16 -4 -19 -5 -3 -7 -12 -3 -20 3 -8 2 -23 -2 -33 -4 -9 -7
-30 -6 -45 2 -16 -5 -37 -14 -47 -9 -10 -15 -23 -12 -27 8 -12 -24 -74 -34
-68 -4 3 -6 12 -2 20 3 8 0 15 -6 15 -6 0 -11 -11 -11 -24 0 -28 -37 -96 -52
-96 -6 0 -8 -6 -5 -13 5 -12 -5 -15 -61 -20 -21 -2 -24 3 -27 42 -2 24 0 53 4
65 4 11 4 35 0 51 -7 30 -7 30 -8 -7 -1 -29 -4 -36 -17 -31 -11 4 -13 13 -8
35 4 22 3 29 -6 26 -17 -5 -21 -178 -5 -178 5 0 16 -9 23 -20 10 -16 16 -18
38 -10 16 7 23 7 19 0 -3 -6 -1 -10 4 -10 6 0 11 4 11 10 0 5 13 7 28 4 25 -5
33 0 60 38 17 23 36 48 41 54 5 7 7 15 4 18 -4 3 -1 6 5 6 7 0 12 14 12 30 0
17 4 30 9 30 4 0 6 11 3 25 -2 14 0 25 6 25 6 0 12 10 14 23 4 29 41 31 46 2
2 -11 6 -27 9 -35 3 -8 8 -35 10 -60 2 -25 8 -47 13 -48 6 -2 8 -8 4 -13 -11
-18 36 -97 65 -108 27 -12 300 -10 396 2 43 5 108 30 100 38 -3 3 5 11 18 18
12 7 37 32 56 57 18 24 37 42 41 39 4 -3 10 4 13 15 5 21 31 27 42 10 3 -5 -1
-10 -9 -10 -9 0 -16 -4 -16 -10 0 -5 9 -10 20 -10 17 0 19 -5 14 -25 -4 -18
-2 -25 8 -25 7 0 25 -11 40 -25 31 -29 39 -30 86 -13 27 10 33 17 29 34 -2 15
0 21 9 17 6 -2 15 0 19 6 3 6 17 11 31 11 14 0 23 -4 19 -10 -3 -5 -13 -7 -23
-4 -11 4 -7 -3 10 -19 16 -15 23 -27 16 -29 -8 -3 -8 -9 -2 -19 5 -8 9 -23 9
-34 0 -16 7 -20 40 -22 22 -1 32 1 22 4 -14 3 -15 8 -7 18 8 10 8 15 -1 20 -6
5 -7 10 -2 14 5 3 7 31 4 61 -6 49 -7 52 -14 26 -10 -36 -28 -22 -29 22 -1 21
-5 29 -14 25 -19 -7 -18 21 1 37 8 7 15 19 15 28 0 11 -8 13 -36 9 -30 -5 -34
-4 -24 8 7 8 8 15 3 15 -17 0 -44 -60 -37 -82 5 -17 3 -20 -11 -14 -10 3 -24
1 -31 -5 -8 -6 -21 -8 -31 -3 -10 4 -21 8 -25 8 -5 1 -9 6 -10 11 -1 6 -11 18
-22 27 -18 15 -19 19 -6 28 13 8 8 14 -12 12 -3 -1 -9 5 -12 13 -3 9 1 15 9
15 8 0 15 7 15 15 0 8 -7 15 -15 15 -11 0 -12 6 -7 23 11 29 4 66 -9 46 -6
-10 -9 -10 -9 -1 0 14 -36 16 -45 2 -3 -5 -8 -28 -11 -52 -3 -24 -7 -51 -8
-61 -1 -10 -8 -22 -16 -27 -7 -4 -10 -15 -7 -23 3 -9 -1 -18 -9 -21 -8 -3 -14
-10 -14 -17 0 -6 -13 -23 -29 -39 -31 -28 -44 -22 -36 17 10 49 14 113 7 113
-5 0 -14 -34 -21 -75 -8 -41 -18 -75 -22 -75 -5 0 -9 -9 -9 -20 0 -11 -4 -20
-10 -20 -5 0 -10 -7 -10 -15 0 -25 -21 -27 -192 -25 -147 2 -228 -15 -212 -43
4 -7 -1 -5 -11 4 -12 12 -17 33 -18 75 0 68 -13 94 -32 67 -11 -15 -13 -13
-20 15 -3 17 -7 35 -7 39 0 5 -4 14 -10 20 -7 9 -7 17 0 26 6 7 14 49 17 93 3
43 9 96 14 116 5 20 5 54 0 75 -17 82 -31 128 -40 137 -5 6 -9 18 -9 28 0 10
-4 18 -8 18 -10 0 -50 78 -55 106 -1 10 -6 24 -10 30 -14 23 -35 123 -30 143
3 11 2 29 -2 38 -4 10 -9 36 -10 58 -1 22 -4 40 -5 40 -11 0 -17 150 -7 163 6
8 6 12 -1 12 -7 0 -11 16 -10 35 1 19 4 35 8 35 4 0 6 31 6 70 -1 38 2 70 5
70 3 0 7 12 7 28 1 15 4 45 7 67 3 22 7 56 9 75 2 19 12 41 23 50 10 8 18 26
18 40 0 14 3 30 6 35 4 6 9 19 11 30 1 11 6 22 10 25 3 3 8 21 10 40 1 19 6
37 10 40 6 5 12 79 8 90 -2 3 -3 16 -4 30 -1 14 -4 30 -8 35 -5 9 -21 95 -23
120 0 6 -4 13 -10 17 -6 5 -5 12 3 20 15 15 16 29 1 26 -6 -2 -14 3 -16 10 -3
6 1 12 7 12 9 0 9 4 -1 16 -11 14 -11 18 3 28 17 12 20 66 4 66 -5 0 -3 7 4
15 6 8 9 19 5 25 -3 5 -1 10 6 10 7 0 10 13 7 35 -2 19 -1 35 2 35 4 0 5 14 2
30 -2 17 0 36 6 43 7 7 7 18 2 27 -6 10 -10 4 -15 -21z"/>
<path d="M4965 2630 c-3 -5 -3 -15 0 -20 4 -6 0 -21 -8 -34 -11 -17 -13 -26
-5 -34 8 -8 8 -15 -1 -26 -9 -10 -9 -16 -1 -21 7 -4 8 -11 1 -18 -13 -17 11
-153 27 -149 6 1 12 -5 12 -13 0 -8 -5 -15 -11 -15 -6 0 -4 -9 5 -21 10 -14
13 -37 10 -69 -3 -35 0 -49 10 -53 7 -3 14 -17 14 -32 0 -14 9 -36 21 -49 11
-12 21 -28 21 -34 0 -7 9 -17 20 -24 11 -7 20 -17 20 -22 0 -19 42 -96 52 -96
6 0 8 -7 5 -15 -4 -8 -2 -17 4 -21 7 -4 6 -10 -1 -19 -7 -8 -7 -16 -2 -19 16
-10 19 -79 6 -112 -7 -17 -10 -34 -7 -38 4 -3 1 -6 -6 -6 -8 0 -11 -7 -7 -15
3 -8 1 -15 -5 -15 -6 0 -8 -4 -4 -10 3 -5 -2 -26 -11 -47 -10 -21 -18 -63 -18
-94 -1 -51 1 -55 17 -45 18 11 23 26 8 26 -16 0 -19 38 -4 44 11 5 12 10 4 19
-8 10 -6 19 7 33 11 11 24 52 32 97 7 43 17 80 21 83 5 3 4 14 -2 25 -8 16 -7
26 5 44 10 15 12 26 6 30 -6 3 -10 13 -10 21 0 9 -12 31 -26 50 -15 19 -23 34
-19 34 5 0 -2 8 -13 19 -12 10 -22 25 -22 34 0 8 -7 18 -16 21 -8 3 -13 10 -9
15 3 6 -3 14 -12 20 -25 13 -57 104 -50 140 3 15 2 32 -3 37 -5 5 -11 26 -13
46 -2 20 -9 43 -16 52 -8 10 -13 62 -14 160 -1 80 -3 146 -4 146 -1 0 -5 -4
-8 -10z"/>
<path d="M4422 2495 c-6 -14 -16 -25 -21 -25 -10 0 -24 -38 -22 -57 1 -7 -2
-13 -7 -13 -5 0 -15 -23 -22 -51 -8 -27 -17 -52 -22 -55 -4 -3 -5 -11 -1 -19
3 -8 0 -15 -6 -15 -6 0 -11 -6 -11 -13 0 -7 -13 -14 -30 -15 -23 -2 -33 3 -40
20 -8 19 -9 16 -4 -12 4 -19 10 -36 15 -38 5 -2 9 -10 9 -18 0 -8 3 -14 8 -14
10 1 48 30 38 30 -4 0 3 15 16 33 13 17 23 34 24 37 6 38 40 130 47 130 5 0 7
7 3 15 -3 9 3 19 15 25 11 6 17 15 14 19 -9 15 44 19 56 5 6 -8 16 -11 22 -7
6 4 8 0 4 -10 -4 -10 2 -24 14 -36 13 -12 17 -21 10 -26 -17 -10 -13 -22 11
-28 18 -5 19 -8 8 -21 -10 -13 -10 -16 3 -16 25 0 30 20 11 42 -10 11 -19 25
-19 31 0 29 -51 116 -70 121 -34 10 -41 7 -53 -19z"/>
<path d="M5627 2397 c4 -29 1 -37 -16 -46 -14 -8 -27 -9 -40 -2 -10 6 -20 8
-23 6 -2 -2 -9 5 -16 15 -8 13 -8 20 -2 20 6 0 5 6 -2 14 -11 12 -14 11 -20
-3 -6 -14 -7 -14 -7 2 -1 18 -41 25 -41 7 0 -5 3 -10 8 -10 10 0 32 -51 26
-62 -3 -4 -10 -6 -15 -3 -5 4 -9 2 -9 -4 0 -5 4 -12 9 -15 10 -7 20 -53 13
-61 -17 -17 -19 -135 -2 -145 7 -5 10 -15 6 -25 -3 -10 -1 -24 5 -31 6 -8 9
-20 6 -29 -4 -8 -2 -17 3 -20 6 -4 10 -19 10 -35 0 -36 28 -110 42 -110 7 0 7
4 0 13 -11 13 -29 108 -37 197 -3 30 -7 71 -10 91 -3 22 1 43 11 57 8 12 12
27 8 34 -5 8 3 9 29 5 28 -4 37 -2 37 8 0 9 6 12 15 9 10 -4 16 3 21 23 4 15
10 33 13 38 7 9 7 24 1 43 -1 4 -3 16 -4 26 0 11 -6 21 -13 23 -8 3 -10 -6 -6
-30z"/>
<path d="M4135 2382 c0 -20 3 -39 7 -42 4 -3 8 -43 10 -88 2 -45 7 -82 11 -82
5 0 6 -9 2 -19 -3 -11 -1 -22 5 -26 6 -3 8 -10 5 -15 -3 -5 0 -22 8 -37 8 -15
12 -34 10 -40 -3 -7 0 -13 6 -13 5 0 10 -8 10 -17 -1 -32 7 -54 21 -63 15 -9
21 -37 21 -86 -1 -18 5 -34 13 -37 20 -8 30 -58 14 -69 -10 -6 -10 -10 2 -18
8 -5 11 -10 5 -10 -5 0 -4 -5 2 -11 15 -15 5 -49 -13 -42 -17 6 -18 -1 -4 -28
8 -14 7 -19 -1 -19 -7 0 -9 -9 -5 -24 7 -29 -15 -50 -44 -41 -14 5 -20 2 -20
-9 0 -9 8 -16 19 -16 11 0 23 -4 26 -10 3 -5 -3 -10 -14 -10 -28 0 -27 -18 1
-22 12 -2 23 -10 25 -18 4 -12 3 -13 -5 -1 -8 11 -12 9 -23 -10 -7 -13 -12
-27 -11 -31 1 -5 -3 -8 -9 -8 -13 0 -2 -39 19 -62 8 -10 12 -18 7 -18 -4 0 -3
-6 3 -13 7 -8 7 -18 2 -27 -5 -8 -6 -18 -3 -23 3 -4 2 -25 -2 -44 -4 -24 -9
-32 -15 -24 -5 9 -10 10 -14 3 -3 -6 -2 -14 4 -17 8 -5 7 -11 -1 -21 -9 -11
-8 -15 4 -20 12 -4 13 -11 4 -34 -8 -21 -14 -26 -20 -17 -6 9 -7 8 -5 -2 7
-25 23 -22 57 9 25 24 30 35 21 45 -8 9 -7 14 5 19 23 8 18 26 -7 27 -13 1
-16 3 -8 5 31 9 47 84 18 84 -7 0 -6 5 1 14 8 10 6 19 -10 40 -11 14 -15 26
-9 26 6 0 8 5 5 10 -4 6 -11 8 -16 5 -5 -4 -9 -1 -9 4 0 6 10 11 23 11 18 0
19 2 7 10 -13 9 -13 12 0 23 9 6 14 20 12 30 -2 9 2 17 8 17 7 0 10 8 7 20 -3
11 -1 20 5 20 5 0 7 4 4 9 -3 5 -15 7 -26 4 -11 -3 -20 0 -20 6 0 6 9 11 19
11 26 0 34 15 21 40 -9 16 -8 22 5 26 8 4 15 11 14 18 -1 6 3 23 9 38 9 21 8
33 -3 55 -18 34 -19 47 -4 37 7 -4 10 -1 7 7 -3 8 -11 13 -17 11 -6 -1 -11 9
-11 23 0 14 -6 25 -12 25 -10 0 -10 2 0 9 10 6 11 13 1 34 -7 15 -16 27 -22
27 -5 0 -7 7 -3 15 3 8 1 15 -4 15 -6 0 -10 8 -10 18 0 10 -6 24 -12 31 -7 6
-13 15 -14 19 0 4 -6 21 -13 37 -18 43 -43 164 -36 176 4 5 3 14 -1 21 -4 7
-9 32 -10 58 -5 76 -10 110 -20 120 -5 5 -9 -6 -9 -28z"/>
<path d="M4143 1912 c-14 -9 -8 -75 7 -80 5 -2 10 -15 10 -29 0 -28 29 -83 44
-83 5 0 3 -6 -6 -12 -20 -17 -32 -104 -15 -112 9 -5 9 -7 0 -12 -7 -3 -13 -11
-13 -19 0 -7 -7 -18 -15 -25 -9 -7 -13 -21 -10 -31 3 -9 1 -20 -5 -24 -8 -5
-8 -11 1 -21 9 -11 9 -17 -1 -29 -6 -8 -9 -23 -5 -34 3 -10 2 -22 -3 -25 -5
-3 -7 -20 -4 -38 9 -57 2 -178 -10 -178 -8 0 -8 3 -11 -167 -2 -113 0 -133 13
-133 11 0 12 -2 2 -8 -11 -8 -8 -93 4 -114 3 -4 2 -14 -3 -20 -11 -19 -12
-118 -1 -118 5 0 6 -5 3 -10 -4 -6 -1 -17 5 -25 10 -12 10 -18 0 -30 -10 -12
-9 -15 5 -15 11 0 15 -5 11 -15 -9 -24 22 -18 35 7 9 16 9 23 0 26 -6 2 -11 8
-11 13 0 6 5 7 11 3 15 -9 0 38 -15 49 -8 5 -8 9 1 15 6 4 10 23 9 42 -2 19 2
38 8 42 6 4 12 12 12 18 1 5 2 15 3 21 0 6 10 9 21 6 23 -6 27 11 4 20 -8 3
-14 15 -12 27 1 11 -1 27 -5 34 -5 7 -3 12 3 12 6 0 8 5 5 10 -3 6 -1 10 4 10
6 0 11 5 11 10 0 6 -6 10 -14 10 -12 0 -12 7 0 47 13 43 13 49 -1 59 -14 10
-14 12 0 17 19 8 14 52 -6 52 -8 0 -17 7 -21 15 -5 10 -7 7 -8 -10 -1 -14 -4
-19 -7 -12 -2 6 -10 9 -15 6 -7 -5 -8 -2 -4 5 5 7 1 18 -10 25 -12 9 -15 19
-9 32 11 27 17 93 17 211 1 94 2 102 22 107 20 6 20 7 3 20 -14 11 -17 22 -12
50 4 20 11 36 16 36 5 0 9 9 9 20 0 17 5 19 25 14 14 -3 25 -2 25 4 0 5 -9 12
-20 15 -16 4 -20 14 -20 51 0 45 5 51 38 47 6 -1 12 2 12 8 0 5 -6 12 -12 14
-10 4 -10 6 0 6 6 1 12 6 12 12 0 7 -9 9 -21 6 -16 -4 -19 -2 -15 10 4 11 2
13 -9 9 -10 -4 -15 1 -15 14 0 32 -1 34 -17 52 -8 10 -13 23 -10 30 6 18 4 34
-6 30 -5 -1 -6 7 -2 18 7 22 6 23 -12 12z"/>
<path d="M2228 1508 c-6 -24 -18 -47 -25 -51 -7 -5 -11 -12 -8 -16 2 -5 -2
-14 -10 -21 -10 -8 -11 -18 -5 -35 6 -16 6 -27 -1 -31 -7 -4 -7 -10 0 -18 7
-9 3 -20 -15 -39 -21 -23 -23 -28 -9 -33 12 -5 13 -10 4 -20 -6 -8 -8 -22 -5
-31 6 -14 2 -12 -17 5 -15 14 -30 20 -40 16 -21 -8 -21 -18 -3 -33 13 -11 25
-54 27 -91 1 -27 22 -60 38 -61 12 0 11 -2 -3 -8 -14 -5 -16 -10 -8 -15 7 -4
12 -16 12 -27 0 -10 7 -19 15 -19 8 0 15 -9 15 -20 0 -11 4 -20 10 -20 11 0 9
102 -3 111 -4 3 -3 19 3 35 9 23 8 31 -4 39 -13 10 -13 17 0 60 11 39 12 56 3
84 -9 26 -9 36 0 39 14 5 14 42 1 76 -5 15 -6 26 0 26 5 0 12 10 16 23 4 12
10 24 14 27 8 6 23 90 16 90 -3 0 -11 -19 -18 -42z"/>
<path d="M1524 1396 c-49 -49 -43 -70 21 -73 27 -2 63 -8 79 -15 37 -15 69
-46 61 -58 -4 -6 3 -10 14 -10 13 0 19 -5 15 -14 -3 -7 2 -21 11 -30 9 -9 18
-22 19 -29 1 -6 7 -22 14 -33 6 -12 9 -24 5 -27 -3 -3 2 -13 11 -22 9 -9 19
-28 22 -43 3 -15 12 -41 20 -59 8 -17 14 -36 14 -41 0 -6 11 -23 25 -38 14
-15 25 -22 25 -16 0 6 -6 17 -12 24 -14 14 -36 69 -44 108 -3 13 -10 30 -16
37 -5 7 -7 24 -4 38 4 15 2 25 -4 25 -6 0 -8 5 -5 10 3 6 -1 13 -10 16 -9 4
-14 12 -11 19 2 7 2 16 -2 19 -3 4 -7 14 -8 24 -2 9 -8 18 -13 20 -6 2 -11 10
-11 19 0 8 -7 22 -16 31 -11 10 -13 17 -5 20 19 6 12 25 -8 19 -16 -4 -18 0
-15 20 3 14 1 22 -5 19 -5 -4 -13 3 -16 15 -5 16 -13 20 -31 16 -13 -2 -21 0
-18 4 3 5 13 9 22 9 31 0 -2 19 -45 26 -39 6 -45 4 -79 -30z"/>
<path d="M1145 1240 c1 -25 6 -53 10 -62 4 -9 4 -22 0 -28 -3 -5 -3 -15 1 -22
4 -6 8 -25 10 -42 1 -17 5 -54 7 -82 6 -63 15 -94 28 -94 6 0 8 4 5 8 -2 4 -1
14 4 21 10 17 33 4 26 -14 -3 -8 1 -19 9 -25 11 -9 13 -7 11 14 -1 14 -6 29
-9 33 -4 3 -2 12 3 18 7 9 6 16 -5 25 -17 14 -20 50 -4 50 5 0 7 5 3 11 -4 8
-9 8 -17 0 -7 -7 -14 -7 -24 0 -22 19 -15 29 20 29 23 0 28 3 18 9 -11 7 -12
13 -3 23 6 8 7 19 2 28 -7 11 -11 8 -21 -13 -7 -15 -16 -27 -20 -27 -14 0 -23
24 -11 28 8 2 6 12 -8 29 -11 14 -20 37 -21 52 -1 14 -5 37 -9 51 -7 19 -8 14
-5 -20z"/>
<path d="M1560 1181 c0 -7 -5 -9 -12 -5 -7 5 -8 3 -3 -6 4 -7 2 -16 -6 -21
-14 -8 -16 -22 -19 -154 -1 -57 5 -99 20 -148 12 -38 19 -71 16 -75 -3 -3 -6
1 -6 8 0 7 -2 11 -5 8 -10 -10 7 -37 20 -32 8 3 21 -12 34 -39 23 -47 26 -67
11 -67 -5 0 -7 -7 -3 -16 4 -11 8 -12 13 -4 5 8 9 7 13 -4 3 -8 2 -18 -3 -21
-6 -4 -10 -14 -9 -23 0 -14 2 -13 8 3 6 16 9 10 13 -25 3 -26 0 -48 -6 -52 -8
-6 -8 -10 0 -15 9 -6 9 -24 0 -71 -6 -35 -14 -61 -16 -59 -3 3 -6 -30 -8 -74
-2 -63 1 -88 19 -125 11 -26 24 -43 27 -37 4 5 30 15 57 23 28 7 51 14 53 16
2 1 -10 15 -26 31 -35 33 -39 48 -24 83 6 14 11 19 11 12 1 -7 6 -10 11 -7 6
4 8 11 5 16 -3 5 1 6 9 3 9 -3 16 -2 16 4 0 6 -6 12 -12 15 -10 3 -10 7 -2 18
15 19 24 59 13 59 -5 0 -9 -9 -9 -19 0 -10 -9 -29 -20 -42 -22 -28 -26 -19 -6
14 7 12 13 32 12 44 -2 12 1 20 6 17 4 -3 8 -1 8 4 0 5 11 7 25 4 15 -2 25 0
25 7 0 6 -7 11 -15 11 -8 0 -15 5 -15 10 0 7 6 7 19 1 10 -6 21 -7 25 -4 3 3
6 1 6 -6 0 -20 44 -8 48 13 3 11 0 16 -7 11 -6 -3 -9 -11 -6 -16 4 -5 0 -9 -8
-9 -8 0 -14 9 -13 22 1 16 7 23 21 23 24 0 63 -36 57 -53 -2 -6 1 -12 8 -12
10 0 10 -3 0 -15 -16 -19 -5 -32 13 -17 15 13 27 6 27 -15 0 -8 -5 -11 -11 -7
-8 4 -8 0 0 -15 7 -11 9 -21 6 -21 -3 0 -1 -10 6 -21 8 -17 8 -20 -1 -14 -9 5
-10 2 -6 -13 4 -11 2 -23 -4 -27 -6 -4 -9 -13 -6 -21 4 -10 -2 -14 -19 -14
-13 0 -27 -4 -30 -10 -4 -6 1 -7 11 -3 14 5 15 1 10 -24 -6 -28 -4 -32 24 -41
49 -18 89 6 117 68 38 83 39 255 2 323 -5 10 -7 23 -3 29 4 6 15 -8 26 -33
l19 -44 -7 40 c-3 22 -9 42 -12 45 -4 3 -13 17 -21 33 -15 28 -35 38 -25 12 4
-8 10 -15 15 -15 5 0 9 -7 9 -15 0 -24 -20 -17 -30 11 -6 14 -22 41 -36 60
-15 19 -28 51 -30 70 -1 20 -9 43 -18 52 -40 43 -66 76 -66 83 0 5 -5 9 -10 9
-15 0 2 -29 44 -73 20 -21 36 -47 36 -58 0 -27 -18 -24 -26 5 -3 13 -15 33
-27 44 -52 49 -140 196 -141 237 -1 11 -13 26 -31 34 -22 11 -25 16 -14 19 14
3 15 8 6 33 -7 17 -19 29 -29 29 -10 0 -18 3 -18 8 0 9 -46 30 -88 38 -22 4
-32 3 -32 -5z"/>
<path d="M4855 1133 c-10 -14 -17 -36 -17 -48 0 -12 -16 -39 -34 -61 -32 -37
-45 -62 -25 -50 16 11 20 -48 4 -66 -9 -10 -17 -34 -19 -54 -2 -20 -8 -42 -15
-50 -6 -8 -8 -14 -5 -14 4 0 1 -10 -6 -22 -6 -13 -11 -37 -9 -54 1 -18 -4 -36
-13 -43 -17 -15 -22 -36 -6 -26 6 3 10 1 10 -4 0 -6 -16 -11 -35 -11 -19 0
-35 -4 -35 -10 0 -5 4 -10 9 -10 14 0 23 -33 11 -40 -6 -4 -10 -11 -8 -16 2
-5 -1 -9 -7 -9 -5 0 -9 2 -9 5 1 3 5 15 8 27 7 21 5 22 -16 14 -13 -5 -22 -15
-20 -25 2 -11 -2 -14 -15 -9 -15 6 -16 4 -6 -9 7 -8 9 -19 5 -23 -4 -5 1 -6
10 -2 10 3 19 0 22 -9 9 -24 8 -25 -18 -18 -14 3 -27 1 -32 -7 -5 -9 -2 -10
12 -5 15 6 17 5 7 -5 -18 -18 -16 -29 5 -30 13 0 12 -3 -5 -11 -27 -13 -30
-33 -6 -42 14 -6 15 -9 4 -15 -10 -6 -11 -14 -3 -27 7 -13 6 -26 -5 -47 -11
-22 -12 -32 -3 -42 7 -8 8 -20 4 -26 -4 -8 -3 -9 5 -5 6 4 29 8 51 8 40 0 53
11 25 22 -24 9 -17 26 10 26 13 0 28 8 34 17 5 10 13 14 18 9 4 -5 2 -11 -5
-13 -18 -7 -4 -23 19 -23 10 0 19 -7 19 -15 0 -8 5 -15 10 -15 18 0 11 -20 -7
-21 -15 0 -15 -2 2 -8 11 -5 24 -6 28 -4 14 8 38 -19 32 -36 -4 -11 -1 -11 14
3 16 14 31 17 66 14 25 -3 48 -2 51 3 3 5 -1 9 -8 9 -7 0 -2 6 12 13 14 8 24
19 23 25 -2 7 2 12 7 12 6 0 10 5 10 10 0 6 -6 10 -12 10 -9 0 -14 18 -15 51
-2 37 1 50 10 46 7 -3 12 6 13 22 1 14 -1 20 -3 14 -8 -23 -29 -14 -31 14 -1
14 -9 34 -17 43 -19 21 -19 34 0 26 11 -4 15 2 15 27 0 18 -5 39 -11 47 -8 11
-9 7 -5 -17 6 -34 -9 -56 -18 -26 -14 51 -25 133 -21 168 2 22 6 69 9 105 3
36 8 77 12 93 3 16 1 27 -5 27 -6 0 -8 12 -5 28 4 18 1 32 -9 40 -15 13 -12
52 4 52 5 0 9 11 9 25 0 14 -5 25 -11 25 -9 0 -9 4 0 13 8 11 6 19 -8 35 -24
29 -35 28 -56 -5z"/>
<path d="M5880 999 c11 -8 12 -12 3 -16 -7 -2 -13 -15 -13 -27 0 -12 -5 -27
-11 -33 -6 -6 -13 -26 -15 -45 -2 -18 -7 -53 -10 -78 -15 -96 3 -232 37 -282
11 -14 19 -30 19 -36 0 -5 7 -15 15 -22 8 -7 12 -16 10 -21 -3 -4 4 -18 16
-30 l21 -21 -7 24 c-4 12 -15 34 -24 48 -32 50 -41 65 -45 75 -20 58 -28 94
-30 144 -2 32 -7 64 -10 70 -4 6 0 11 10 11 13 0 14 3 5 14 -8 10 -8 20 4 42
8 16 15 37 15 46 0 10 10 23 22 29 18 10 24 8 40 -11 22 -27 38 -18 20 11 -7
11 -10 24 -7 29 3 5 1 11 -5 15 -5 3 -10 13 -10 20 0 21 -31 55 -50 55 -13 0
-13 -2 0 -11z"/>
<path d="M1276 722 c11 -7 34 -129 34 -179 0 -15 -7 -41 -15 -56 -8 -15 -11
-35 -8 -44 5 -11 3 -14 -6 -8 -10 6 -12 0 -6 -25 5 -23 4 -31 -4 -25 -8 5 -10
-1 -5 -19 5 -20 2 -26 -11 -26 -9 0 -13 -5 -10 -10 4 -6 10 -8 14 -6 4 3 4
-21 -1 -52 -11 -78 -1 -142 22 -142 35 0 68 39 89 105 12 35 21 72 22 82 1 13
3 10 9 -7 7 -22 8 -21 9 13 1 20 -2 37 -6 37 -5 0 -6 23 -4 51 2 35 6 47 12
38 6 -10 9 -8 9 9 0 12 -4 22 -10 22 -5 0 -10 5 -10 11 0 5 6 7 13 3 9 -6 9
-4 1 7 -6 8 -27 53 -47 100 -38 93 -62 129 -87 129 -9 0 -11 -3 -4 -8z"/>
<path d="M1113 399 c-6 -6 -37 -13 -69 -15 -36 -3 -62 -11 -67 -20 -4 -8 -15
-14 -23 -14 -9 0 -29 -9 -44 -20 -16 -11 -42 -23 -59 -26 -17 -4 -31 -13 -31
-21 0 -9 -8 -13 -21 -11 -13 2 -26 -5 -33 -17 -6 -11 -23 -31 -38 -44 -15 -13
-26 -27 -23 -31 2 -4 -4 -15 -15 -25 -11 -10 -20 -24 -20 -32 0 -7 -7 -13 -16
-13 -8 0 -12 -5 -9 -11 4 -5 0 -18 -8 -27 -8 -9 -17 -29 -19 -45 -5 -26 -4
-27 43 -27 l48 0 26 53 c32 64 115 155 176 190 51 29 202 74 206 60 2 -4 18
-8 36 -7 31 2 33 0 29 -28 -3 -22 -1 -29 8 -26 7 2 15 21 17 42 2 21 5 44 6
50 1 6 -3 10 -10 9 -7 -2 -10 4 -6 12 7 21 -27 60 -38 43 -6 -9 -11 -9 -21 0
-10 8 -18 8 -25 1z"/>
<path d="M2816 157 c-9 -23 -16 -55 -16 -70 0 -19 -5 -27 -17 -27 -15 0 -16
-2 -3 -10 13 -9 13 -11 0 -20 -8 -5 -10 -10 -5 -11 6 0 1 -4 -10 -9 -15 -7
-10 -9 23 -9 23 -1 42 4 42 9 0 6 9 10 21 10 11 0 18 -4 15 -8 -6 -10 80 -16
95 -6 8 4 7 9 -2 15 -12 8 -12 10 0 18 11 7 10 11 -5 20 -13 9 -15 14 -6 17
18 8 15 51 -4 58 -13 5 -14 9 -4 21 20 24 6 27 -18 5 -12 -11 -26 -20 -32 -20
-6 0 -9 -4 -6 -8 2 -4 -4 -8 -15 -8 -20 0 -22 6 -20 43 4 39 -16 33 -33 -10z"/>
<path d="M5250 88 c-88 -9 -133 -24 -127 -42 2 -6 -6 -18 -17 -28 -20 -17 -9
-17 241 -18 221 0 262 2 257 14 -3 8 -21 17 -40 20 -19 4 -34 10 -34 14 0 12
-74 32 -175 46 -11 2 -58 -1 -105 -6z"/>
</g>
</svg>
